<?xml version="1.0" encoding="UTF-8"?>
<!DOCTYPE svg PUBLIC "-//W3C//DTD SVG 1.1//EN" "http://www.w3.org/Graphics/SVG/1.1/DTD/svg11.dtd">
<svg xmlns="http://www.w3.org/2000/svg" version="1.1" width="621px" height="402px" style="shape-rendering:geometricPrecision; text-rendering:geometricPrecision; image-rendering:optimizeQuality; fill-rule:evenodd; clip-rule:evenodd" xmlns:xlink="http://www.w3.org/1999/xlink">
<g><path style="opacity:0.994" fill="#f58295" d="M 313.5,19.5 C 313.5,19.8333 313.5,20.1667 313.5,20.5C 314.653,86.1449 314.819,151.812 314,217.5C 313.586,217.043 313.086,216.709 312.5,216.5C 311.571,217.689 311.238,219.022 311.5,220.5C 310.751,221.531 310.085,222.698 309.5,224C 305.912,224.611 304.746,223.111 306,219.5C 306.967,217.37 308.134,215.37 309.5,213.5C 308.037,211.607 306.37,209.941 304.5,208.5C 304.333,147.166 304.5,85.8324 305,24.5C 306.28,20.4358 309.114,18.7691 313.5,19.5 Z"/></g>
<g><path style="opacity:1" fill="#e50035" d="M 291.5,46.5 C 292.5,46.5 293.5,46.5 294.5,46.5C 294.5,98.8333 294.5,151.167 294.5,203.5C 292.15,202.139 289.816,200.806 287.5,199.5C 287.271,197.567 286.438,195.9 285,194.5C 284.333,149.833 284.333,105.167 285,60.5C 285.696,57.5219 286.196,54.5219 286.5,51.5C 288.5,50.1667 290.167,48.5 291.5,46.5 Z"/></g>
<g><path style="opacity:0.614" fill="#e28f9d" d="M 313.5,19.5 C 309.114,18.7691 306.28,20.4358 305,24.5C 304.5,85.8324 304.333,147.166 304.5,208.5C 304.665,212.182 304.499,215.848 304,219.5C 303.439,220.022 302.772,220.355 302,220.5C 299.234,219.075 296.401,217.742 293.5,216.5C 292.628,214.55 291.961,212.55 291.5,210.5C 294.526,213.523 297.859,216.19 301.5,218.5C 302.333,154.503 302.833,90.5026 303,26.5C 303.704,22.3747 305.537,18.8747 308.5,16C 311.368,15.3599 313.035,16.5266 313.5,19.5 Z"/></g>
<g><path style="opacity:1" fill="#d40d3b" d="M 333.5,51.5 C 334.537,52.9303 335.204,54.597 335.5,56.5C 336.475,103.147 336.808,149.814 336.5,196.5C 333.833,198.833 331.167,201.167 328.5,203.5C 327.167,203.5 325.833,203.5 324.5,203.5C 324.333,151.166 324.5,98.8323 325,46.5C 325.423,45.0439 326.256,44.5439 327.5,45C 329.055,46.5827 330.222,48.416 331,50.5C 331.671,51.2524 332.504,51.5858 333.5,51.5 Z"/></g>
<g><path style="opacity:1" fill="#e70033" d="M 328.5,51.5 C 331.753,52.0464 332.753,53.7131 331.5,56.5C 332.421,58.1305 333.255,59.7971 334,61.5C 334.167,83.6667 334.333,105.833 334.5,128C 334.46,151.587 333.793,175.087 332.5,198.5C 330.801,198.34 329.134,198.506 327.5,199C 328.711,199.893 328.711,200.726 327.5,201.5C 326.531,153.415 326.198,105.415 326.5,57.5C 326.363,55.1595 327.03,53.1595 328.5,51.5 Z"/></g>
<g><path style="opacity:0.255" fill="#db9ba5" d="M 315.5,25.5 C 316.167,89.668 316.833,154.001 317.5,218.5C 319.79,217.533 321.79,216.2 323.5,214.5C 323.5,215.833 323.5,217.167 323.5,218.5C 320.801,218.466 318.301,219.133 316,220.5C 315.5,155.501 315.333,90.5009 315.5,25.5 Z"/></g>
<g><path style="opacity:0.247" fill="#ce647a" d="M 287.5,199.5 C 289.816,200.806 292.15,202.139 294.5,203.5C 295.831,150.665 295.831,97.6651 294.5,44.5C 293.261,44.9424 292.261,45.6091 291.5,46.5C 290.167,48.5 288.5,50.1667 286.5,51.5C 288.616,47.6319 291.449,44.2985 295,41.5C 296.153,44.3557 296.986,47.3557 297.5,50.5C 296.168,101.696 296.168,152.863 297.5,204C 296.667,204.833 295.833,205.667 295,206.5C 292.14,204.498 289.64,202.165 287.5,199.5 Z"/></g>
<g><path style="opacity:1" fill="#f48496" d="M 348.5,84.5 C 350.273,87.0599 352.273,89.3932 354.5,91.5C 356.718,94.7193 357.885,98.386 358,102.5C 357.727,128.841 357.894,155.175 358.5,181.5C 357.167,181.833 357.167,182.167 358.5,182.5C 360.736,181.611 362.736,180.278 364.5,178.5C 365.415,179.328 366.081,180.328 366.5,181.5C 365.067,183.122 363.401,184.455 361.5,185.5C 360.691,187.071 360.357,188.738 360.5,190.5C 359.876,192.754 358.543,194.421 356.5,195.5C 354.396,195.799 352.396,195.466 350.5,194.5C 354.081,193.644 354.247,192.644 351,191.5C 349.433,192.856 347.6,193.523 345.5,193.5C 345.5,157.167 345.5,120.833 345.5,84.5C 346.5,84.5 347.5,84.5 348.5,84.5 Z"/></g>
<g><path style="opacity:0.055" fill="#e99cac" d="M 354.5,91.5 C 352.273,89.3932 350.273,87.0599 348.5,84.5C 347.713,82.8958 346.38,82.2291 344.5,82.5C 344.667,120.835 344.5,159.168 344,197.5C 342.549,199.464 340.716,200.797 338.5,201.5C 339.793,199.704 341.293,198.037 343,196.5C 343.5,157.835 343.667,119.168 343.5,80.5C 350.035,81.1983 353.702,84.865 354.5,91.5 Z"/></g>
<g><path style="opacity:1" fill="#f38295" d="M 275.5,83.5 C 275.433,120.969 275.599,158.302 276,195.5C 281.062,200.731 286.229,205.731 291.5,210.5C 291.961,212.55 292.628,214.55 293.5,216.5C 296.401,217.742 299.234,219.075 302,220.5C 302.772,220.355 303.439,220.022 304,219.5C 304.499,215.848 304.665,212.182 304.5,208.5C 306.37,209.941 308.037,211.607 309.5,213.5C 308.134,215.37 306.967,217.37 306,219.5C 304.746,223.111 305.912,224.611 309.5,224C 310.085,222.698 310.751,221.531 311.5,220.5C 311.5,222.167 311.5,223.833 311.5,225.5C 312.873,225.343 314.207,225.51 315.5,226C 313.913,226.862 312.246,227.529 310.5,228C 311.167,228.667 311.833,229.333 312.5,230C 307.435,230.258 302.435,229.758 297.5,228.5C 294.484,227.657 291.817,226.157 289.5,224C 280.932,214.937 272.598,205.77 264.5,196.5C 264.019,193.478 263.353,190.478 262.5,187.5C 261.833,188.167 261.167,188.833 260.5,189.5C 259.548,187.955 259.215,186.288 259.5,184.5C 262.29,184.949 264.956,184.949 267.5,184.5C 266.037,182.271 265.203,179.937 265,177.5C 264.333,164.833 264.333,152.167 265,139.5C 265.452,136.851 266.286,134.351 267.5,132C 267.167,131.667 266.833,131.333 266.5,131C 267.376,129.414 268.376,127.914 269.5,126.5C 263.37,126.265 262.37,124.265 266.5,120.5C 265.311,119.571 263.978,119.238 262.5,119.5C 262.613,108.934 264.113,98.6007 267,88.5C 268.667,85.5 271,83.1667 274,81.5C 274.278,82.4158 274.778,83.0825 275.5,83.5 Z"/></g>
<g><path style="opacity:0.082" fill="#e7a0ae" d="M 275.5,83.5 C 274.778,83.0825 274.278,82.4158 274,81.5C 271,83.1667 268.667,85.5 267,88.5C 264.113,98.6007 262.613,108.934 262.5,119.5C 262.5,140.5 262.5,161.5 262.5,182.5C 254.996,181.998 250.663,177.998 249.5,170.5C 252.929,174.488 256.762,178.154 261,181.5C 261.333,154.167 261.667,126.833 262,99.5C 263.316,92.8627 266.149,87.0294 270.5,82C 272.025,80.9914 273.692,80.4914 275.5,80.5C 275.5,81.5 275.5,82.5 275.5,83.5 Z"/></g>
<g><path style="opacity:0.22" fill="#df5f7c" d="M 335.5,56.5 C 336.268,57.2625 336.768,58.2625 337,59.5C 337.832,105.335 337.665,151.002 336.5,196.5C 336.808,149.814 336.475,103.147 335.5,56.5 Z"/></g>
<g><path style="opacity:0.439" fill="#d76b7d" d="M 388.5,141.5 C 386.606,140.952 384.94,139.952 383.5,138.5C 382.614,139.325 382.281,140.325 382.5,141.5C 375.046,134.582 368.046,127.249 361.5,119.5C 361.833,118.5 362.5,117.833 363.5,117.5C 371.88,125.549 380.214,133.549 388.5,141.5 Z"/></g>
<g><path style="opacity:0.757" fill="#d66a7f" d="M 245.5,133.5 C 245.631,132.624 245.298,131.957 244.5,131.5C 242.079,133.934 239.412,135.934 236.5,137.5C 242.297,131.202 248.297,125.035 254.5,119C 255.793,118.51 257.127,118.343 258.5,118.5C 255.317,124.36 250.984,129.36 245.5,133.5 Z"/></g>
<g><path style="opacity:0.82" fill="#c60e38" d="M 294.5,203.5 C 294.5,151.167 294.5,98.8333 294.5,46.5C 293.5,46.5 292.5,46.5 291.5,46.5C 292.261,45.6091 293.261,44.9424 294.5,44.5C 295.831,97.6651 295.831,150.665 294.5,203.5 Z"/></g>
<g><path style="opacity:0.827" fill="#d74662" d="M 245.5,133.5 C 240.837,138.331 236.337,143.331 232,148.5C 229.978,153.294 228.812,158.294 228.5,163.5C 227.595,159.315 227.429,154.981 228,150.5C 227.051,152.093 225.885,153.426 224.5,154.5C 226.155,147.179 230.155,141.512 236.5,137.5C 239.412,135.934 242.079,133.934 244.5,131.5C 245.298,131.957 245.631,132.624 245.5,133.5 Z"/></g>
<g><path style="opacity:0.788" fill="#cc3c54" d="M 286.5,51.5 C 286.196,54.5219 285.696,57.5219 285,60.5C 284.333,105.167 284.333,149.833 285,194.5C 286.438,195.9 287.271,197.567 287.5,199.5C 285.871,198.375 284.371,197.041 283,195.5C 282.333,150.167 282.333,104.833 283,59.5C 283.942,56.6262 285.109,53.9596 286.5,51.5 Z"/></g>
<g><path style="opacity:0.195" fill="#db617f" d="M 333.5,51.5 C 332.504,51.5858 331.671,51.2524 331,50.5C 330.222,48.416 329.055,46.5827 327.5,45C 326.256,44.5439 325.423,45.0439 325,46.5C 324.5,98.8323 324.333,151.166 324.5,203.5C 325.833,203.5 327.167,203.5 328.5,203.5C 327.599,205.727 325.933,206.727 323.5,206.5C 323.5,151.833 323.5,97.1667 323.5,42.5C 328.681,43.3432 332.014,46.3432 333.5,51.5 Z"/></g>
<g><path style="opacity:0.947" fill="#e78a9a" d="M 360.5,190.5 C 360.357,188.738 360.691,187.071 361.5,185.5C 363.401,184.455 365.067,183.122 366.5,181.5C 366.081,180.328 365.415,179.328 364.5,178.5C 362.736,180.278 360.736,181.611 358.5,182.5C 358.5,182.167 358.5,181.833 358.5,181.5C 363.776,177.563 368.776,173.229 373.5,168.5C 379.71,160.042 380.043,151.375 374.5,142.5C 370.543,138.041 366.376,133.708 362,129.5C 361.5,127.333 362.333,126.5 364.5,127C 368.667,131.167 372.833,135.333 377,139.5C 379.726,142.286 381.393,145.619 382,149.5C 383.098,156.385 382.431,163.051 380,169.5C 373.634,176.697 367.134,183.697 360.5,190.5 Z"/></g>
<g><path style="opacity:1" fill="#d9314d" d="M 228.5,163.5 C 229.241,167.659 230.574,171.659 232.5,175.5C 235.266,177.259 237.266,179.593 238.5,182.5C 242.291,185.118 245.957,187.951 249.5,191C 251.141,192.129 252.141,193.629 252.5,195.5C 250.201,194.789 248.035,193.789 246,192.5C 244.775,192.862 243.609,193.362 242.5,194C 244.562,195.532 245.896,197.532 246.5,200C 247.833,200.333 249.167,200.667 250.5,201C 249.833,201.333 249.167,201.667 248.5,202C 250.65,203.649 252.65,205.482 254.5,207.5C 257.353,208.191 259.853,209.524 262,211.5C 261.881,214.068 262.381,216.734 263.5,219.5C 250.877,206.914 238.71,193.914 227,180.5C 222.383,172.126 221.55,163.46 224.5,154.5C 225.885,153.426 227.051,152.093 228,150.5C 227.429,154.981 227.595,159.315 228.5,163.5 Z"/></g>
<g><path style="opacity:0.986" fill="#d73a52" d="M 388.5,141.5 C 396.495,151.196 398.662,162.196 395,174.5C 390.779,182.884 384.946,189.884 377.5,195.5C 379.632,192.725 380.965,189.559 381.5,186C 379.123,186.827 376.789,187.994 374.5,189.5C 374.369,188.761 374.536,188.094 375,187.5C 379.755,184.027 384.089,180.027 388,175.5C 394.382,162.902 392.549,151.569 382.5,141.5C 382.281,140.325 382.614,139.325 383.5,138.5C 384.94,139.952 386.606,140.952 388.5,141.5 Z"/></g>
<g><path style="opacity:1" fill="#eb899a" d="M 262.5,119.5 C 263.978,119.238 265.311,119.571 266.5,120.5C 262.37,124.265 263.37,126.265 269.5,126.5C 268.376,127.914 267.376,129.414 266.5,131C 266.833,131.333 267.167,131.667 267.5,132C 266.286,134.351 265.452,136.851 265,139.5C 264.333,152.167 264.333,164.833 265,177.5C 265.203,179.937 266.037,182.271 267.5,184.5C 264.956,184.949 262.29,184.949 259.5,184.5C 259.215,186.288 259.548,187.955 260.5,189.5C 261.167,188.833 261.833,188.167 262.5,187.5C 263.353,190.478 264.019,193.478 264.5,196.5C 256.866,188.697 249.366,180.697 242,172.5C 237.763,165.075 236.43,157.075 238,148.5C 238.725,146.051 239.725,143.717 241,141.5C 245.5,137 250,132.5 254.5,128C 255.944,127.219 257.277,127.386 258.5,128.5C 254.89,133.613 250.723,138.28 246,142.5C 239.446,152.876 240.613,162.21 249.5,170.5C 250.663,177.998 254.996,181.998 262.5,182.5C 262.5,161.5 262.5,140.5 262.5,119.5 Z"/></g>
<g><path style="opacity:0.999" fill="#e30437" d="M 238.5,182.5 C 240.236,185.322 242.236,187.988 244.5,190.5C 242.287,193.08 240.12,193.08 238,190.5C 235.522,187.71 233.688,184.544 232.5,181C 234.716,180.607 236.716,181.107 238.5,182.5 Z"/></g>
<g><path style="opacity:0.995" fill="#de0838" d="M 377.5,195.5 C 377.5,196.167 377.167,196.5 376.5,196.5C 375.167,196.5 373.833,196.5 372.5,196.5C 372.543,200.893 372.043,201.226 371,197.5C 370.517,198.448 370.351,199.448 370.5,200.5C 369.5,200.5 368.5,200.5 367.5,200.5C 367.343,199.127 367.51,197.793 368,196.5C 370.466,194.242 372.633,191.909 374.5,189.5C 376.789,187.994 379.123,186.827 381.5,186C 380.965,189.559 379.632,192.725 377.5,195.5 Z"/></g>
<g><path style="opacity:1" fill="#d6364f" d="M 374.5,189.5 C 372.633,191.909 370.466,194.242 368,196.5C 367.51,197.793 367.343,199.127 367.5,200.5C 368.5,200.5 369.5,200.5 370.5,200.5C 370.351,199.448 370.517,198.448 371,197.5C 372.043,201.226 372.543,200.893 372.5,196.5C 373.833,196.5 375.167,196.5 376.5,196.5C 370.94,203.667 364.94,210.334 358.5,216.5C 358.784,214.123 358.784,211.956 358.5,210C 360.134,209.506 361.801,209.34 363.5,209.5C 363.5,208.167 363.5,206.833 363.5,205.5C 364.5,205.5 365.5,205.5 366.5,205.5C 365.744,203.387 365.577,201.387 366,199.5C 361.017,203.063 356.184,206.73 351.5,210.5C 358.21,202.456 365.877,195.456 374.5,189.5 Z"/></g>
<g><path style="opacity:0.976" fill="#ed8294" d="M 313.5,20.5 C 314.931,21.7804 315.598,23.4471 315.5,25.5C 315.333,90.5009 315.5,155.501 316,220.5C 318.301,219.133 320.801,218.466 323.5,218.5C 323.5,217.167 323.5,215.833 323.5,214.5C 327.904,209.426 332.904,205.093 338.5,201.5C 340.716,200.797 342.549,199.464 344,197.5C 344.5,159.168 344.667,120.835 344.5,82.5C 346.38,82.2291 347.713,82.8958 348.5,84.5C 347.5,84.5 346.5,84.5 345.5,84.5C 345.5,120.833 345.5,157.167 345.5,193.5C 347.6,193.523 349.433,192.856 351,191.5C 354.247,192.644 354.081,193.644 350.5,194.5C 352.396,195.466 354.396,195.799 356.5,195.5C 346.317,207.516 335.317,218.683 323.5,229C 316.698,231.388 309.698,232.054 302.5,231C 300.509,230.626 298.842,229.793 297.5,228.5C 302.435,229.758 307.435,230.258 312.5,230C 311.833,229.333 311.167,228.667 310.5,228C 312.246,227.529 313.913,226.862 315.5,226C 314.207,225.51 312.873,225.343 311.5,225.5C 311.5,223.833 311.5,222.167 311.5,220.5C 311.238,219.022 311.571,217.689 312.5,216.5C 313.086,216.709 313.586,217.043 314,217.5C 314.819,151.812 314.653,86.1449 313.5,20.5 Z"/></g>
<g><path style="opacity:1" fill="#e30735" d="M 252.5,195.5 C 254.754,196.124 256.421,197.457 257.5,199.5C 257.961,201.55 258.628,203.55 259.5,205.5C 262.648,207.243 265.648,209.243 268.5,211.5C 270.005,212.842 270.672,214.508 270.5,216.5C 273.388,216.22 274.888,217.553 275,220.5C 282.008,222.393 282.675,225.059 277,228.5C 275.234,227.767 273.401,227.433 271.5,227.5C 270.182,224.981 268.515,222.648 266.5,220.5C 265.583,219.873 264.583,219.539 263.5,219.5C 262.381,216.734 261.881,214.068 262,211.5C 259.853,209.524 257.353,208.191 254.5,207.5C 252.65,205.482 250.65,203.649 248.5,202C 249.167,201.667 249.833,201.333 250.5,201C 249.167,200.667 247.833,200.333 246.5,200C 245.896,197.532 244.562,195.532 242.5,194C 243.609,193.362 244.775,192.862 246,192.5C 248.035,193.789 250.201,194.789 252.5,195.5 Z"/></g>
<g><path style="opacity:0.843" fill="#d55265" d="M 263.5,219.5 C 264.583,219.539 265.583,219.873 266.5,220.5C 268.515,222.648 270.182,224.981 271.5,227.5C 267.93,225.719 265.263,223.052 263.5,219.5 Z"/></g>
<g><path style="opacity:1" fill="#db2a45" d="M 257.5,199.5 C 270.325,211.094 282.992,222.928 295.5,235C 305.186,242.228 314.853,242.228 324.5,235C 333.391,226.604 342.391,218.438 351.5,210.5C 343.494,221.173 334.161,230.506 323.5,238.5C 322.571,239.689 322.238,241.022 322.5,242.5C 316.24,242.578 309.906,242.245 303.5,241.5C 299.655,239.412 295.655,237.579 291.5,236C 289.833,233.665 287.999,231.831 286,230.5C 285.167,231.333 284.333,232.167 283.5,233C 284.833,235 284.833,237 283.5,239C 285.838,240.162 287.172,241.996 287.5,244.5C 281.462,239.463 276.129,233.797 271.5,227.5C 273.401,227.433 275.234,227.767 277,228.5C 282.675,225.059 282.008,222.393 275,220.5C 274.888,217.553 273.388,216.22 270.5,216.5C 270.672,214.508 270.005,212.842 268.5,211.5C 265.648,209.243 262.648,207.243 259.5,205.5C 258.628,203.55 257.961,201.55 257.5,199.5 Z"/></g>
<g><path style="opacity:0.996" fill="#d63b52" d="M 358.5,216.5 C 349.706,226.463 340.706,236.296 331.5,246C 319.084,254.176 306.084,255.176 292.5,249C 290.76,247.483 289.094,245.983 287.5,244.5C 291.227,244.195 293.894,245.695 295.5,249C 304.133,250.673 312.8,250.84 321.5,249.5C 323.297,247.248 325.63,246.248 328.5,246.5C 328.5,245.5 328.5,244.5 328.5,243.5C 329.833,243.5 331.167,243.5 332.5,243.5C 332.5,242.5 332.5,241.5 332.5,240.5C 333.5,240.5 334.5,240.5 335.5,240.5C 335.579,239.07 335.246,237.736 334.5,236.5C 336.396,235.534 338.396,235.201 340.5,235.5C 340.34,233.801 340.506,232.134 341,230.5C 341.414,230.957 341.914,231.291 342.5,231.5C 342.833,227.833 344.833,225.833 348.5,225.5C 350.086,223.827 350.753,221.827 350.5,219.5C 352.157,217.73 354.824,216.73 358.5,216.5 Z"/></g>
<g><path style="opacity:1" fill="#e40234" d="M 358.5,216.5 C 354.824,216.73 352.157,217.73 350.5,219.5C 350.753,221.827 350.086,223.827 348.5,225.5C 344.833,225.833 342.833,227.833 342.5,231.5C 341.914,231.291 341.414,230.957 341,230.5C 340.506,232.134 340.34,233.801 340.5,235.5C 338.396,235.201 336.396,235.534 334.5,236.5C 335.246,237.736 335.579,239.07 335.5,240.5C 334.5,240.5 333.5,240.5 332.5,240.5C 332.5,241.5 332.5,242.5 332.5,243.5C 331.167,243.5 329.833,243.5 328.5,243.5C 328.5,244.5 328.5,245.5 328.5,246.5C 325.63,246.248 323.297,247.248 321.5,249.5C 312.8,250.84 304.133,250.673 295.5,249C 293.894,245.695 291.227,244.195 287.5,244.5C 287.172,241.996 285.838,240.162 283.5,239C 284.833,237 284.833,235 283.5,233C 284.333,232.167 285.167,231.333 286,230.5C 287.999,231.831 289.833,233.665 291.5,236C 295.655,237.579 299.655,239.412 303.5,241.5C 309.906,242.245 316.24,242.578 322.5,242.5C 322.238,241.022 322.571,239.689 323.5,238.5C 334.161,230.506 343.494,221.173 351.5,210.5C 356.184,206.73 361.017,203.063 366,199.5C 365.577,201.387 365.744,203.387 366.5,205.5C 365.5,205.5 364.5,205.5 363.5,205.5C 363.5,206.833 363.5,208.167 363.5,209.5C 361.801,209.34 360.134,209.506 358.5,210C 358.784,211.956 358.784,214.123 358.5,216.5 Z"/></g>
<g><path style="opacity:0.812" fill="#e05c73" d="M 306.5,287.5 C 305.167,287.5 303.833,287.5 302.5,287.5C 302.5,286.5 302.5,285.5 302.5,284.5C 297.001,286.61 291.334,288.443 285.5,290C 283.527,290.495 281.527,290.662 279.5,290.5C 284.065,287.867 289.065,286.201 294.5,285.5C 296.18,283.991 298.014,282.657 300,281.5C 302.392,283.317 304.559,285.317 306.5,287.5 Z"/></g>
<g><path style="opacity:0.788" fill="#e24761" d="M 222.5,303.5 C 227.968,295.5 225.968,290.834 216.5,289.5C 216.5,287.833 216.5,286.167 216.5,284.5C 213.266,285.576 209.932,286.243 206.5,286.5C 209.68,285.654 212.346,283.987 214.5,281.5C 216.888,284.655 220.054,286.989 224,288.5C 229.057,294.242 228.557,299.242 222.5,303.5 Z"/></g>
<g><path style="opacity:1" fill="#e21943" d="M 222.5,303.5 C 218.651,303.019 216.651,304.686 216.5,308.5C 215.167,308.5 213.833,308.5 212.5,308.5C 212.34,306.801 212.506,305.134 213,303.5C 215.333,301.5 217.667,299.5 220,297.5C 220.765,295.934 220.598,294.601 219.5,293.5C 217.833,293.5 216.167,293.5 214.5,293.5C 213.504,293.414 212.671,293.748 212,294.5C 207.235,303.692 203.901,313.359 202,323.5C 200.586,324.413 199.086,324.413 197.5,323.5C 196.513,318.68 195.847,313.68 195.5,308.5C 197.201,308.966 198.701,308.966 200,308.5C 202.906,303.962 204.406,299.295 204.5,294.5C 202.881,293.928 201.215,293.595 199.5,293.5C 197.124,295.627 196.124,298.293 196.5,301.5C 195.167,301.5 193.833,301.5 192.5,301.5C 192.5,298.833 192.5,296.167 192.5,293.5C 197.285,291.942 201.619,289.608 205.5,286.5C 205.833,286.5 206.167,286.5 206.5,286.5C 209.932,286.243 213.266,285.576 216.5,284.5C 216.5,286.167 216.5,287.833 216.5,289.5C 225.968,290.834 227.968,295.5 222.5,303.5 Z M 214.5,293.5 C 216.167,293.5 217.833,293.5 219.5,293.5C 219.649,294.552 219.483,295.552 219,296.5C 216.561,298.629 214.061,300.629 211.5,302.5C 212.213,299.406 213.213,296.406 214.5,293.5 Z"/></g>
<g><path style="opacity:0.22" fill="#dc4e6a" d="M 501.5,299.5 C 501.719,298.325 501.386,297.325 500.5,296.5C 498.448,293.948 495.948,291.948 493,290.5C 486.563,292.045 481.73,295.545 478.5,301C 478.667,301.833 478.833,302.667 479,303.5C 480.828,304.661 482.328,306.161 483.5,308C 483.43,308.765 483.097,309.265 482.5,309.5C 473.358,304.297 473.358,298.797 482.5,293C 486.475,290.26 490.808,288.927 495.5,289C 500.56,291.131 502.56,294.631 501.5,299.5 Z"/></g>
<g><path style="opacity:0.533" fill="#dc536b" d="M 272.5,290.5 C 267.709,292.651 266.376,296.318 268.5,301.5C 268.196,303.441 267.363,305.107 266,306.5C 264.28,301.472 262.114,296.638 259.5,292C 257.765,291.349 256.098,291.515 254.5,292.5C 253.542,294.624 252.375,296.624 251,298.5C 250.329,299.252 249.496,299.586 248.5,299.5C 248.414,298.504 248.748,297.671 249.5,297C 246.183,296.502 242.85,296.335 239.5,296.5C 240.136,302.559 237.969,303.893 233,300.5C 232.21,297.366 232.543,294.366 234,291.5C 235.444,289.845 237.278,289.178 239.5,289.5C 241.134,288.839 242.967,288.506 245,288.5C 247.917,288.335 250.583,289.002 253,290.5C 255.373,288.15 257.873,287.983 260.5,290C 263.305,294.075 265.138,298.575 266,303.5C 266.292,301.674 266.125,299.841 265.5,298C 266.185,295.46 267.019,292.96 268,290.5C 269.616,289.199 271.116,289.199 272.5,290.5 Z"/></g>
<g><path style="opacity:0.997" fill="#e41342" d="M 239.5,289.5 C 243.452,290.272 247.452,290.605 251.5,290.5C 251.5,291.833 251.5,293.167 251.5,294.5C 247.486,294.334 243.486,294.501 239.5,295C 238.594,296.699 238.261,298.533 238.5,300.5C 233.593,300.467 232.26,298.134 234.5,293.5C 236.586,292.511 238.253,291.178 239.5,289.5 Z"/></g>
<g><path style="opacity:0.725" fill="#de5069" d="M 148.5,285.5 C 145.893,283.678 143.893,284.178 142.5,287C 141.333,287.167 140.167,287.333 139,287.5C 136.129,286.791 133.295,286.291 130.5,286C 129.524,289.25 128.69,292.417 128,295.5C 128.414,295.957 128.914,296.291 129.5,296.5C 130.569,295.09 131.903,294.09 133.5,293.5C 132.599,300.099 129.766,301.099 125,296.5C 125.742,292.159 127.242,287.992 129.5,284C 131.167,283.333 132.833,283.333 134.5,284C 135.529,285.698 137.029,286.532 139,286.5C 141.38,285.743 143.38,284.409 145,282.5C 146.642,282.978 147.809,283.978 148.5,285.5 Z"/></g>
<g><path style="opacity:0.459" fill="#e3677f" d="M 430.5,288.5 C 428.833,288.5 427.167,288.5 425.5,288.5C 425.224,295.715 421.89,301.048 415.5,304.5C 416.713,301.775 418.546,299.441 421,297.5C 422.893,294.382 424.226,291.049 425,287.5C 427.118,286.261 428.951,286.595 430.5,288.5 Z"/></g>
<g><path style="opacity:0.478" fill="#e4667d" d="M 521.5,294.5 C 523.167,294.5 524.833,294.5 526.5,294.5C 526.662,296.527 526.495,298.527 526,300.5C 524.24,304.648 522.407,308.648 520.5,312.5C 515.508,311.492 513.508,313.492 514.5,318.5C 513.541,322.858 515.208,325.191 519.5,325.5C 517.511,326.887 515.678,326.553 514,324.5C 513.333,320.5 513.333,316.5 514,312.5C 519.23,308.773 523.063,303.773 525.5,297.5C 522.894,296.348 520.227,296.182 517.5,297C 516.901,298.622 516.234,300.122 515.5,301.5C 515.34,299.801 515.506,298.134 516,296.5C 517.948,295.891 519.782,295.224 521.5,294.5 Z"/></g>
<g><path style="opacity:0.859" fill="#e04665" d="M 550.5,290.5 C 551.265,293.096 551.599,295.763 551.5,298.5C 550.606,304.177 548.939,309.51 546.5,314.5C 548.148,307.595 549.148,300.595 549.5,293.5C 548.178,293.33 547.011,293.663 546,294.5C 545.004,297.909 544.171,301.242 543.5,304.5C 541.701,299.492 542.368,294.825 545.5,290.5C 547.167,289.334 548.834,289.334 550.5,290.5 Z"/></g>
<g><path style="opacity:0.027" fill="#fcafc1" d="M 550.5,290.5 C 552.026,291.492 552.693,292.992 552.5,295C 552.486,296.385 552.152,297.551 551.5,298.5C 551.599,295.763 551.265,293.096 550.5,290.5 Z"/></g>
<g><path style="opacity:0.566" fill="#d85371" d="M 154.5,289.5 C 152.784,293.972 152.118,298.638 152.5,303.5C 153.833,303.5 155.167,303.5 156.5,303.5C 155.249,305.561 153.582,305.894 151.5,304.5C 149.123,300.971 148.956,297.304 151,293.5C 151.66,291.676 152.827,290.343 154.5,289.5 Z"/></g>
<g><path style="opacity:0.998" fill="#e03e5a" d="M 306.5,287.5 C 313.256,289.755 315.089,294.088 312,300.5C 309.78,303.021 307.28,305.188 304.5,307C 310.178,308.857 312.345,312.691 311,318.5C 310.617,319.056 310.117,319.389 309.5,319.5C 309.813,316.753 309.48,314.086 308.5,311.5C 304.071,310.128 302.404,307.295 303.5,303C 304.448,302.517 305.448,302.351 306.5,302.5C 306.657,301.127 306.49,299.793 306,298.5C 303.076,300.078 300.242,301.745 297.5,303.5C 299.502,300.666 302.002,298.333 305,296.5C 305.483,295.552 305.649,294.552 305.5,293.5C 303.833,293.5 302.167,293.5 300.5,293.5C 299.1,294.1 298.1,295.1 297.5,296.5C 298.084,290.254 301.084,288.92 306.5,292.5C 307.167,294.167 307.833,295.833 308.5,297.5C 310.384,296.307 310.884,294.641 310,292.5C 308.613,290.953 307.447,289.287 306.5,287.5 Z"/></g>
<g><path style="opacity:0.835" fill="#de4a63" d="M 467.5,308.5 C 467.474,305.124 468.141,301.958 469.5,299C 469.876,295.881 468.542,294.048 465.5,293.5C 461.857,295.327 458.523,297.661 455.5,300.5C 454.526,302.743 454.192,305.076 454.5,307.5C 453.71,306.391 453.21,305.058 453,303.5C 451.513,308.431 450.846,313.431 451,318.5C 453.903,316.454 455.736,313.787 456.5,310.5C 457.598,311.601 457.765,312.934 457,314.5C 454.981,317.712 452.147,319.378 448.5,319.5C 448.335,316.15 448.502,312.817 449,309.5C 450.683,303.108 452.183,296.775 453.5,290.5C 452.5,290.5 451.5,290.5 450.5,290.5C 450.509,292.308 450.009,293.975 449,295.5C 445.368,298.13 442.035,301.13 439,304.5C 438.503,306.81 438.337,309.143 438.5,311.5C 440.099,311.232 441.432,311.566 442.5,312.5C 437.469,313.204 435.636,310.871 437,305.5C 439.63,301.868 442.63,298.535 446,295.5C 447.275,293.283 448.275,290.949 449,288.5C 451.632,285.808 453.966,286.141 456,289.5C 456.333,291.5 456.667,293.5 457,295.5C 459.931,293.358 463.098,291.692 466.5,290.5C 469.86,291.533 471.527,293.866 471.5,297.5C 471.221,301.658 469.888,305.324 467.5,308.5 Z"/></g>
<g><path style="opacity:1" fill="#e41842" d="M 501.5,299.5 C 499.273,300.401 498.273,302.067 498.5,304.5C 494.686,304.349 493.019,302.349 493.5,298.5C 494.043,298.44 494.376,298.107 494.5,297.5C 489.319,295.471 485.319,296.804 482.5,301.5C 484.101,304.751 486.768,306.417 490.5,306.5C 490.5,308.5 490.5,310.5 490.5,312.5C 487.931,312.738 486.265,314.071 485.5,316.5C 483.03,317.884 481.363,319.884 480.5,322.5C 484.949,321.971 489.282,320.971 493.5,319.5C 496.005,319.02 498.338,318.02 500.5,316.5C 500.833,317.167 501.167,317.833 501.5,318.5C 500.349,320.325 499.682,322.325 499.5,324.5C 492.675,326.834 485.675,328.001 478.5,328C 472.735,323.814 472.068,318.981 476.5,313.5C 477.802,311.178 479.802,309.845 482.5,309.5C 483.097,309.265 483.43,308.765 483.5,308C 482.328,306.161 480.828,304.661 479,303.5C 478.833,302.667 478.667,301.833 478.5,301C 481.73,295.545 486.563,292.045 493,290.5C 495.948,291.948 498.448,293.948 500.5,296.5C 501.386,297.325 501.719,298.325 501.5,299.5 Z"/></g>
<g><path style="opacity:0.237" fill="#e05c75" d="M 110.5,308.5 C 109.861,307.903 109.528,307.07 109.5,306C 109.951,301.468 110.951,297.135 112.5,293C 112.291,291.129 111.291,289.962 109.5,289.5C 107.746,293.734 105.08,297.068 101.5,299.5C 103.601,295.631 105.434,291.631 107,287.5C 111.243,286.38 114.076,288.047 115.5,292.5C 112.905,297.55 111.238,302.884 110.5,308.5 Z"/></g>
<g><path style="opacity:0.359" fill="#d4566f" d="M 430.5,288.5 C 432.022,289.191 433.022,290.358 433.5,292C 430.942,297.101 429.275,302.434 428.5,308C 429,308.5 429.5,309 430,309.5C 434.261,308.23 435.428,309.73 433.5,314C 431.414,314.315 429.414,314.815 427.5,315.5C 428.552,313.744 430.219,313.077 432.5,313.5C 432.5,312.5 432.5,311.5 432.5,310.5C 429.41,311.17 427.743,310.003 427.5,307C 428.14,301.966 429.473,297.132 431.5,292.5C 431.154,291.151 430.821,289.817 430.5,288.5 Z"/></g>
<g><path style="opacity:0.18" fill="#de627c" d="M 300.5,293.5 C 299.169,296.829 297.836,300.162 296.5,303.5C 294.308,307.412 292.308,311.412 290.5,315.5C 291.971,308.884 294.304,302.551 297.5,296.5C 298.1,295.1 299.1,294.1 300.5,293.5 Z"/></g>
<g><path style="opacity:0.722" fill="#e04661" d="M 377.5,292.5 C 371.924,291.933 368.591,294.267 367.5,299.5C 365.992,301.181 364.992,303.181 364.5,305.5C 366.201,304.789 367.201,303.455 367.5,301.5C 369.247,305.944 367.58,307.944 362.5,307.5C 362.43,302.295 364.096,297.795 367.5,294C 367.719,292.029 366.885,290.862 365,290.5C 363.923,291.429 362.756,292.096 361.5,292.5C 363.907,287.271 366.574,287.271 369.5,292.5C 372.259,288.534 374.926,288.534 377.5,292.5 Z"/></g>
<g><path style="opacity:0.451" fill="#df506b" d="M 493.5,298.5 C 493.44,297.957 493.107,297.624 492.5,297.5C 489.711,298.648 487.044,299.981 484.5,301.5C 490.493,302.965 492.993,306.632 492,312.5C 490.056,314.221 487.89,315.554 485.5,316.5C 486.265,314.071 487.931,312.738 490.5,312.5C 490.5,310.5 490.5,308.5 490.5,306.5C 486.768,306.417 484.101,304.751 482.5,301.5C 485.319,296.804 489.319,295.471 494.5,297.5C 494.376,298.107 494.043,298.44 493.5,298.5 Z"/></g>
<g><path style="opacity:0.384" fill="#dd596e" d="M 205.5,286.5 C 201.619,289.608 197.285,291.942 192.5,293.5C 192.5,296.167 192.5,298.833 192.5,301.5C 193.833,301.5 195.167,301.5 196.5,301.5C 196.124,298.293 197.124,295.627 199.5,293.5C 201.215,293.595 202.881,293.928 204.5,294.5C 199.519,295.478 197.185,298.478 197.5,303.5C 195.533,303.739 193.699,303.406 192,302.5C 189.504,297.644 190.338,293.478 194.5,290C 197.893,287.924 201.56,286.758 205.5,286.5 Z"/></g>
<g><path style="opacity:0.651" fill="#dd4d69" d="M 214.5,293.5 C 213.213,296.406 212.213,299.406 211.5,302.5C 210.662,302.842 210.328,303.508 210.5,304.5C 206.744,310.59 204.244,317.257 203,324.5C 200.992,326.628 199.159,326.295 197.5,323.5C 199.086,324.413 200.586,324.413 202,323.5C 203.901,313.359 207.235,303.692 212,294.5C 212.671,293.748 213.504,293.414 214.5,293.5 Z"/></g>
<g><path style="opacity:0.439" fill="#d95970" d="M 278.5,291.5 C 281.001,291.511 281.168,292.178 279,293.5C 278.503,296.146 278.336,298.813 278.5,301.5C 279.833,301.5 281.167,301.5 282.5,301.5C 282.157,299.517 282.824,298.183 284.5,297.5C 283.911,299.352 283.244,301.185 282.5,303C 281.167,303.667 279.833,303.667 278.5,303C 275.97,299.068 275.97,295.235 278.5,291.5 Z"/></g>
<g><path style="opacity:1" fill="#e24561" d="M 175.5,295.5 C 175.267,297.062 174.6,298.395 173.5,299.5C 175.912,299.306 176.912,297.973 176.5,295.5C 177.245,297.671 177.412,300.005 177,302.5C 178.699,303.406 180.533,303.739 182.5,303.5C 180.236,305.314 177.903,307.147 175.5,309C 176.56,311.737 177.394,314.57 178,317.5C 178.615,319.116 179.615,320.449 181,321.5C 182.584,320.139 184.418,319.472 186.5,319.5C 187.582,324.093 185.915,327.093 181.5,328.5C 178.839,327.668 176.172,326.834 173.5,326C 170.556,322.005 168.89,317.505 168.5,312.5C 170.051,315.48 171.384,318.647 172.5,322C 175.859,324.707 179.526,325.541 183.5,324.5C 180.813,323.902 178.646,322.569 177,320.5C 176.422,316.01 175.256,311.677 173.5,307.5C 174.732,305.95 175.232,304.283 175,302.5C 173.128,304.381 170.961,304.381 168.5,302.5C 170.217,299.489 172.55,297.156 175.5,295.5 Z M 175.5,295.5 C 175.833,295.5 176.167,295.5 176.5,295.5C 176.912,297.973 175.912,299.306 173.5,299.5C 174.6,298.395 175.267,297.062 175.5,295.5 Z"/></g>
<g><path style="opacity:1" fill="#e22b52" d="M 543.5,304.5 C 544.171,301.242 545.004,297.909 546,294.5C 547.011,293.663 548.178,293.33 549.5,293.5C 549.148,300.595 548.148,307.595 546.5,314.5C 546.5,314.833 546.5,315.167 546.5,315.5C 545.833,315.833 545.167,316.167 544.5,316.5C 544.401,313.327 545.068,310.327 546.5,307.5C 546.167,306.833 545.833,306.167 545.5,305.5C 544.281,306.263 543.281,307.263 542.5,308.5C 541.914,308.291 541.414,307.957 541,307.5C 540.213,303.821 539.379,300.154 538.5,296.5C 536.45,295.923 535.45,294.59 535.5,292.5C 530.496,292.001 525.496,291.334 520.5,290.5C 515.037,289.5 512.037,291.666 511.5,297C 511.613,298.28 512.28,299.113 513.5,299.5C 514.244,298.009 514.91,296.509 515.5,295C 517.473,294.505 519.473,294.338 521.5,294.5C 519.782,295.224 517.948,295.891 516,296.5C 515.506,298.134 515.34,299.801 515.5,301.5C 509.933,302.247 508.1,299.913 510,294.5C 510.707,292.919 511.54,291.419 512.5,290C 518.595,287.893 524.595,288.059 530.5,290.5C 532.956,287.92 535.456,287.92 538,290.5C 540.105,294.583 541.438,298.917 542,303.5C 542.383,304.056 542.883,304.389 543.5,304.5 Z"/></g>
<g><path style="opacity:0.722" fill="#da4261" d="M 493.5,298.5 C 493.019,302.349 494.686,304.349 498.5,304.5C 498.273,302.067 499.273,300.401 501.5,299.5C 501.184,306.633 498.017,308.3 492,304.5C 491.262,302.119 491.762,300.119 493.5,298.5 Z"/></g>
<g><path style="opacity:0.384" fill="#d74962" d="M 377.5,292.5 C 384.097,297.687 385.097,303.687 380.5,310.5C 380.462,307.819 381.129,305.319 382.5,303C 380.147,299.818 378.48,296.318 377.5,292.5 Z"/></g>
<g><path style="opacity:0.18" fill="#ce6a81" d="M 123.5,303.5 C 122.5,308.5 124.5,310.5 129.5,309.5C 128.22,310.931 126.553,311.598 124.5,311.5C 124.5,310.833 124.167,310.5 123.5,310.5C 122.244,308.059 122.244,305.726 123.5,303.5 Z"/></g>
<g><path style="opacity:0.553" fill="#e24a65" d="M 148.5,285.5 C 149.267,286.172 149.934,287.005 150.5,288C 148.74,291.775 147.073,295.608 145.5,299.5C 151.501,305.179 150.334,308.512 142,309.5C 140.032,313.939 137.532,317.939 134.5,321.5C 135.362,316.582 137.029,311.916 139.5,307.5C 142.03,306.868 144.363,305.868 146.5,304.5C 144.127,303.45 143.127,301.617 143.5,299C 145.539,294.705 147.206,290.205 148.5,285.5 Z"/></g>
<g><path style="opacity:0.937" fill="#de3f5d" d="M 133.5,293.5 C 139.311,291.427 141.311,293.427 139.5,299.5C 135.701,303.293 131.034,304.959 125.5,304.5C 125.5,305.5 125.5,306.5 125.5,307.5C 128.247,307.187 130.914,307.52 133.5,308.5C 133.833,309.167 134.167,309.833 134.5,310.5C 132.716,315.618 129.383,318.951 124.5,320.5C 124.663,318.143 124.497,315.81 124,313.5C 122.989,312.663 121.822,312.33 120.5,312.5C 119.554,325.211 124.221,328.211 134.5,321.5C 132.129,327.181 128.129,328.681 122.5,326C 117.979,321.599 116.979,316.599 119.5,311C 120.793,310.51 122.127,310.343 123.5,310.5C 124.167,310.5 124.5,310.833 124.5,311.5C 126.6,313.895 127.1,316.561 126,319.5C 128.784,316.767 130.951,313.601 132.5,310C 131.552,309.517 130.552,309.351 129.5,309.5C 124.5,310.5 122.5,308.5 123.5,303.5C 127.22,301.921 131.22,300.921 135.5,300.5C 140.069,296.452 139.402,294.119 133.5,293.5 Z"/></g>
<g><path style="opacity:0.983" fill="#e41c44" d="M 182.5,303.5 C 180.533,303.739 178.699,303.406 177,302.5C 177.412,300.005 177.245,297.671 176.5,295.5C 176.167,295.5 175.833,295.5 175.5,295.5C 172.55,297.156 170.217,299.489 168.5,302.5C 170.961,304.381 173.128,304.381 175,302.5C 175.232,304.283 174.732,305.95 173.5,307.5C 175.256,311.677 176.422,316.01 177,320.5C 178.646,322.569 180.813,323.902 183.5,324.5C 179.526,325.541 175.859,324.707 172.5,322C 171.384,318.647 170.051,315.48 168.5,312.5C 167.778,312.082 167.278,311.416 167,310.5C 166.392,312.066 165.558,313.4 164.5,314.5C 162.132,316.956 161.132,319.956 161.5,323.5C 159.833,323.5 158.167,323.5 156.5,323.5C 156.5,318.5 156.5,313.5 156.5,308.5C 159.325,308.919 161.491,307.919 163,305.5C 163.847,303.146 164.68,300.812 165.5,298.5C 165.703,296.956 166.37,295.622 167.5,294.5C 160.255,293.076 156.588,296.076 156.5,303.5C 155.167,303.5 153.833,303.5 152.5,303.5C 152.118,298.638 152.784,293.972 154.5,289.5C 155.842,288.207 157.509,287.374 159.5,287C 165.164,286.978 170.664,286.144 176,284.5C 177.44,285.148 178.94,285.481 180.5,285.5C 182.67,289.188 184.337,293.188 185.5,297.5C 184.864,299.78 183.864,301.78 182.5,303.5 Z M 175.5,295.5 C 175.833,295.5 176.167,295.5 176.5,295.5C 176.912,297.973 175.912,299.306 173.5,299.5C 174.6,298.395 175.267,297.062 175.5,295.5 Z"/></g>
<g><path style="opacity:1" fill="#e01c42" d="M 306.5,287.5 C 307.447,289.287 308.613,290.953 310,292.5C 310.884,294.641 310.384,296.307 308.5,297.5C 307.833,295.833 307.167,294.167 306.5,292.5C 301.084,288.92 298.084,290.254 297.5,296.5C 294.304,302.551 291.971,308.884 290.5,315.5C 290.072,318.785 289.072,321.785 287.5,324.5C 286.178,324.67 285.011,324.337 284,323.5C 283.173,319.459 283.34,315.459 284.5,311.5C 285.425,312.641 286.259,312.641 287,311.5C 288.184,307.144 289.351,302.811 290.5,298.5C 290.751,296.83 291.418,295.33 292.5,294C 289.286,293.905 286.619,295.072 284.5,297.5C 282.824,298.183 282.157,299.517 282.5,301.5C 281.167,301.5 279.833,301.5 278.5,301.5C 278.336,298.813 278.503,296.146 279,293.5C 281.168,292.178 281.001,291.511 278.5,291.5C 278.5,290.833 278.833,290.5 279.5,290.5C 281.527,290.662 283.527,290.495 285.5,290C 291.334,288.443 297.001,286.61 302.5,284.5C 302.5,285.5 302.5,286.5 302.5,287.5C 303.833,287.5 305.167,287.5 306.5,287.5 Z"/></g>
<g><path style="opacity:1" fill="#dc4962" d="M 219.5,293.5 C 220.598,294.601 220.765,295.934 220,297.5C 217.667,299.5 215.333,301.5 213,303.5C 212.506,305.134 212.34,306.801 212.5,308.5C 213.833,308.5 215.167,308.5 216.5,308.5C 216.651,304.686 218.651,303.019 222.5,303.5C 221.657,305.173 220.324,306.34 218.5,307C 221.913,308.077 224.413,310.244 226,313.5C 226.405,315.775 225.905,317.775 224.5,319.5C 221.692,324.068 217.692,326.234 212.5,326C 208.788,323.442 207.622,319.942 209,315.5C 211.54,314.124 213.54,314.79 215,317.5C 216.022,316.646 216.855,315.646 217.5,314.5C 212.209,313.254 209.875,309.921 210.5,304.5C 211.338,304.158 211.672,303.492 211.5,302.5C 214.061,300.629 216.561,298.629 219,296.5C 219.483,295.552 219.649,294.552 219.5,293.5 Z"/></g>
<g><path style="opacity:0.867" fill="#e33959" d="M 101.5,299.5 C 100.6,303.91 98.2664,307.41 94.5,310C 92.5,310.333 90.5,310.667 88.5,311C 90.6036,311.791 91.937,313.291 92.5,315.5C 94.0632,313.598 96.0632,312.598 98.5,312.5C 100.03,312.64 101.03,313.307 101.5,314.5C 99.8008,314.34 98.1341,314.506 96.5,315C 92.8874,318.613 89.2208,322.279 85.5,326C 84.552,326.483 83.552,326.649 82.5,326.5C 79.0703,326.893 75.9036,326.227 73,324.5C 72.6124,321.151 72.7791,317.817 73.5,314.5C 74.1667,314.167 74.8333,313.833 75.5,313.5C 74.3166,317.159 74.3166,320.825 75.5,324.5C 76.4461,324.987 77.4461,325.32 78.5,325.5C 81.022,324.238 83.6887,323.571 86.5,323.5C 86.3832,321.516 87.0499,319.85 88.5,318.5C 88.1667,318.167 87.8333,317.833 87.5,317.5C 85.1156,319.051 82.6156,320.385 80,321.5C 78.282,320.969 78.1153,320.302 79.5,319.5C 79.8333,320.833 80.1667,320.833 80.5,319.5C 82.8201,317.581 85.1534,315.581 87.5,313.5C 86.962,311.883 86.6287,310.216 86.5,308.5C 89.0593,308.802 91.3926,308.468 93.5,307.5C 95.8273,304.506 98.4939,301.839 101.5,299.5 Z"/></g>
<g><path style="opacity:0.999" fill="#e50b3d" d="M 148.5,285.5 C 147.206,290.205 145.539,294.705 143.5,299C 143.127,301.617 144.127,303.45 146.5,304.5C 144.363,305.868 142.03,306.868 139.5,307.5C 137.029,311.916 135.362,316.582 134.5,321.5C 124.221,328.211 119.554,325.211 120.5,312.5C 121.822,312.33 122.989,312.663 124,313.5C 124.497,315.81 124.663,318.143 124.5,320.5C 129.383,318.951 132.716,315.618 134.5,310.5C 134.167,309.833 133.833,309.167 133.5,308.5C 130.914,307.52 128.247,307.187 125.5,307.5C 125.5,306.5 125.5,305.5 125.5,304.5C 131.034,304.959 135.701,303.293 139.5,299.5C 141.311,293.427 139.311,291.427 133.5,293.5C 131.903,294.09 130.569,295.09 129.5,296.5C 128.914,296.291 128.414,295.957 128,295.5C 128.69,292.417 129.524,289.25 130.5,286C 133.295,286.291 136.129,286.791 139,287.5C 140.167,287.333 141.333,287.167 142.5,287C 143.893,284.178 145.893,283.678 148.5,285.5 Z"/></g>
<g><path style="opacity:1" fill="#e21d43" d="M 272.5,290.5 C 274.246,291.249 275.246,292.583 275.5,294.5C 274.117,299.624 272.784,304.624 271.5,309.5C 269.59,310.975 268.424,312.975 268,315.5C 267.502,318.482 267.335,321.482 267.5,324.5C 265.167,324.5 262.833,324.5 260.5,324.5C 260.5,324.167 260.5,323.833 260.5,323.5C 261.097,318.706 260.43,314.373 258.5,310.5C 258.295,307.012 257.461,303.679 256,300.5C 255.617,301.056 255.117,301.389 254.5,301.5C 253.325,301.281 252.325,301.614 251.5,302.5C 247.74,309.251 244.74,316.251 242.5,323.5C 241.448,323.649 240.448,323.483 239.5,323C 239.026,321.271 238.026,320.105 236.5,319.5C 237.073,316.853 237.74,314.187 238.5,311.5C 240.258,310.872 241.758,309.872 243,308.5C 244.357,305.102 246.19,302.102 248.5,299.5C 249.496,299.586 250.329,299.252 251,298.5C 252.375,296.624 253.542,294.624 254.5,292.5C 256.098,291.515 257.765,291.349 259.5,292C 262.114,296.638 264.28,301.472 266,306.5C 267.363,305.107 268.196,303.441 268.5,301.5C 266.376,296.318 267.709,292.651 272.5,290.5 Z"/></g>
<g><path style="opacity:0.051" fill="#dc7384" d="M 415.5,304.5 C 415.489,306.017 414.823,307.184 413.5,308C 410.518,308.498 407.518,308.665 404.5,308.5C 404.366,310.292 404.699,311.958 405.5,313.5C 404.036,312.595 402.702,312.595 401.5,313.5C 401.915,311.052 400.915,309.719 398.5,309.5C 396.235,310.432 394.235,311.765 392.5,313.5C 394.117,307.993 397.283,306.66 402,309.5C 402.374,308.584 402.874,307.75 403.5,307C 405.866,306.438 408.199,306.604 410.5,307.5C 412.423,306.908 414.089,305.908 415.5,304.5 Z"/></g>
<g><path style="opacity:0.997" fill="#e51540" d="M 544.5,316.5 C 545.82,321.907 543.82,324.574 538.5,324.5C 539.083,316.224 537.916,308.224 535,300.5C 533.89,298.963 532.39,298.297 530.5,298.5C 530.5,300.167 530.5,301.833 530.5,303.5C 528.513,307.473 526.513,311.473 524.5,315.5C 522.461,316.911 521.461,318.911 521.5,321.5C 521.34,323.153 520.674,324.486 519.5,325.5C 515.208,325.191 513.541,322.858 514.5,318.5C 513.508,313.492 515.508,311.492 520.5,312.5C 522.407,308.648 524.24,304.648 526,300.5C 526.495,298.527 526.662,296.527 526.5,294.5C 524.833,294.5 523.167,294.5 521.5,294.5C 519.473,294.338 517.473,294.505 515.5,295C 514.91,296.509 514.244,298.009 513.5,299.5C 512.28,299.113 511.613,298.28 511.5,297C 512.037,291.666 515.037,289.5 520.5,290.5C 525.496,291.334 530.496,292.001 535.5,292.5C 535.45,294.59 536.45,295.923 538.5,296.5C 539.379,300.154 540.213,303.821 541,307.5C 541.414,307.957 541.914,308.291 542.5,308.5C 543.281,307.263 544.281,306.263 545.5,305.5C 545.833,306.167 546.167,306.833 546.5,307.5C 545.068,310.327 544.401,313.327 544.5,316.5 Z"/></g>
<g><path style="opacity:0.663" fill="#e05871" d="M 93.5,307.5 C 91.3926,308.468 89.0593,308.802 86.5,308.5C 86.6287,310.216 86.962,311.883 87.5,313.5C 83.3783,312.253 81.0449,313.92 80.5,318.5C 80.5206,316.007 80.1873,313.34 79.5,310.5C 78.1482,311.524 76.8149,312.524 75.5,313.5C 74.8333,313.833 74.1667,314.167 73.5,314.5C 74.7532,308.196 78.0865,306.529 83.5,309.5C 84.3857,308.675 84.719,307.675 84.5,306.5C 87.5448,306.508 90.5448,306.841 93.5,307.5 Z"/></g>
<g><path style="opacity:1" fill="#e51843" d="M 430.5,288.5 C 430.821,289.817 431.154,291.151 431.5,292.5C 429.473,297.132 428.14,301.966 427.5,307C 427.743,310.003 429.41,311.17 432.5,310.5C 432.5,311.5 432.5,312.5 432.5,313.5C 430.219,313.077 428.552,313.744 427.5,315.5C 426.676,319.124 425.676,322.79 424.5,326.5C 423.5,326.5 422.5,326.5 421.5,326.5C 422.065,321.678 421.399,317.178 419.5,313C 417.421,312.192 415.421,312.359 413.5,313.5C 410.285,315.719 407.618,318.553 405.5,322C 395.976,329.68 391.809,327.513 393,315.5C 398.425,308.156 400.258,308.823 398.5,317.5C 398.351,318.552 398.517,319.552 399,320.5C 401.72,317.976 403.887,315.643 405.5,313.5C 404.699,311.958 404.366,310.292 404.5,308.5C 407.518,308.665 410.518,308.498 413.5,308C 414.823,307.184 415.489,306.017 415.5,304.5C 421.89,301.048 425.224,295.715 425.5,288.5C 427.167,288.5 428.833,288.5 430.5,288.5 Z M 405.5,313.5 C 403.887,315.643 401.72,317.976 399,320.5C 398.517,319.552 398.351,318.552 398.5,317.5C 399.488,316.205 400.488,314.872 401.5,313.5C 402.702,312.595 404.036,312.595 405.5,313.5 Z"/></g>
<g><path style="opacity:0.631" fill="#e3556e" d="M 290.5,298.5 C 289.351,302.811 288.184,307.144 287,311.5C 286.259,312.641 285.425,312.641 284.5,311.5C 283.34,315.459 283.173,319.459 284,323.5C 285.011,324.337 286.178,324.67 287.5,324.5C 287.217,325.289 286.717,325.956 286,326.5C 284.488,325.743 283.154,324.743 282,323.5C 281.589,318.481 281.089,313.481 280.5,308.5C 282.144,308.286 283.644,308.62 285,309.5C 286.337,305.493 288.17,301.827 290.5,298.5 Z"/></g>
<g><path style="opacity:0.055" fill="#f48f9e" d="M 258.5,310.5 C 260.43,314.373 261.097,318.706 260.5,323.5C 259.642,319.327 258.976,314.993 258.5,310.5 Z"/></g>
<g><path style="opacity:0.965" fill="#e0526c" d="M 499.5,324.5 C 499.682,322.325 500.349,320.325 501.5,318.5C 501.167,317.833 500.833,317.167 500.5,316.5C 498.338,318.02 496.005,319.02 493.5,319.5C 496.741,317.934 498.241,315.267 498,311.5C 499.049,310.483 500.216,310.316 501.5,311C 506.039,316.45 505.372,320.95 499.5,324.5 Z"/></g>
<g><path style="opacity:0.333" fill="#dd506a" d="M 380.5,310.5 C 380.389,311.117 380.056,311.617 379.5,312C 384.473,316.182 384.64,320.682 380,325.5C 374.933,331.088 370.267,330.755 366,324.5C 364.892,320.914 364.392,317.247 364.5,313.5C 362.712,313.215 361.045,313.548 359.5,314.5C 357.834,317.98 356.001,321.314 354,324.5C 352.629,326.041 351.129,327.375 349.5,328.5C 349.5,327.833 349.5,327.167 349.5,326.5C 351.843,323.464 353.843,320.13 355.5,316.5C 358.253,312.856 361.753,311.856 366,313.5C 366.257,317.77 367.424,321.77 369.5,325.5C 370.85,326.95 372.516,327.617 374.5,327.5C 374.5,326.5 374.5,325.5 374.5,324.5C 375.978,324.762 377.311,324.429 378.5,323.5C 380.621,320.837 381.287,318.004 380.5,315C 379.552,314.517 378.552,314.351 377.5,314.5C 377.982,319.682 375.649,322.349 370.5,322.5C 370.5,319.5 370.5,316.5 370.5,313.5C 371.5,313.5 372.5,313.5 373.5,313.5C 373.577,312.25 374.244,311.417 375.5,311C 377.134,310.506 378.801,310.34 380.5,310.5 Z M 373.5,313.5 C 374.167,313.5 374.833,313.5 375.5,313.5C 375.856,316.564 375.023,319.231 373,321.5C 372.278,318.739 372.445,316.073 373.5,313.5 Z"/></g>
<g><path style="opacity:1" fill="#e50e3e" d="M 456.5,310.5 C 455.833,309.5 455.167,308.5 454.5,307.5C 454.192,305.076 454.526,302.743 455.5,300.5C 458.523,297.661 461.857,295.327 465.5,293.5C 468.542,294.048 469.876,295.881 469.5,299C 468.141,301.958 467.474,305.124 467.5,308.5C 467.5,308.833 467.5,309.167 467.5,309.5C 463.607,313.734 459.607,318.068 455.5,322.5C 451.374,325.374 447.541,325.04 444,321.5C 443.819,318.305 443.319,315.305 442.5,312.5C 441.432,311.566 440.099,311.232 438.5,311.5C 438.337,309.143 438.503,306.81 439,304.5C 442.035,301.13 445.368,298.13 449,295.5C 450.009,293.975 450.509,292.308 450.5,290.5C 451.5,290.5 452.5,290.5 453.5,290.5C 452.183,296.775 450.683,303.108 449,309.5C 448.502,312.817 448.335,316.15 448.5,319.5C 452.147,319.378 454.981,317.712 457,314.5C 457.765,312.934 457.598,311.601 456.5,310.5 Z M 454.5,307.5 C 455.167,308.5 455.833,309.5 456.5,310.5C 455.736,313.787 453.903,316.454 451,318.5C 450.846,313.431 451.513,308.431 453,303.5C 453.21,305.058 453.71,306.391 454.5,307.5 Z"/></g>
<g><path style="opacity:1" fill="#e40e3e" d="M 224.5,319.5 C 221.26,320.877 218.094,322.543 215,324.5C 210.474,323.801 208.641,321.134 209.5,316.5C 212.001,317.826 214.668,318.326 217.5,318C 219.994,315.756 219.994,313.423 217.5,311C 223.832,310.181 226.165,313.014 224.5,319.5 Z"/></g>
<g><path style="opacity:0.043" fill="#f0a9b7" d="M 524.5,315.5 C 524.008,317.819 523.008,319.819 521.5,321.5C 521.461,318.911 522.461,316.911 524.5,315.5 Z"/></g>
<g><path style="opacity:1" fill="#e50b3d" d="M 110.5,308.5 C 110.937,310.074 111.937,311.241 113.5,312C 111.527,312.495 109.527,312.662 107.5,312.5C 107.451,315.374 107.784,318.208 108.5,321C 107.658,324.253 105.658,326.086 102.5,326.5C 102.817,322.298 102.483,318.298 101.5,314.5C 101.03,313.307 100.03,312.64 98.5,312.5C 96.0632,312.598 94.0632,313.598 92.5,315.5C 91.937,313.291 90.6036,311.791 88.5,311C 90.5,310.667 92.5,310.333 94.5,310C 98.2664,307.41 100.6,303.91 101.5,299.5C 105.08,297.068 107.746,293.734 109.5,289.5C 111.291,289.962 112.291,291.129 112.5,293C 110.951,297.135 109.951,301.468 109.5,306C 109.528,307.07 109.861,307.903 110.5,308.5 Z"/></g>
<g><path style="opacity:0.427" fill="#dd506a" d="M 254.5,301.5 C 250.309,309.219 246.642,317.219 243.5,325.5C 238.201,327.21 235.867,325.21 236.5,319.5C 238.026,320.105 239.026,321.271 239.5,323C 240.448,323.483 241.448,323.649 242.5,323.5C 244.74,316.251 247.74,309.251 251.5,302.5C 252.325,301.614 253.325,301.281 254.5,301.5 Z"/></g>
<g><path style="opacity:0.992" fill="#e31b42" d="M 309.5,319.5 C 306.532,319.626 304.532,321.126 303.5,324C 297.389,324.923 295.056,322.423 296.5,316.5C 298.747,317.374 301.08,317.708 303.5,317.5C 303.737,316.209 303.404,315.209 302.5,314.5C 300.132,313.217 297.965,311.55 296,309.5C 295.82,307.512 295.986,305.512 296.5,303.5C 296.833,303.5 297.167,303.5 297.5,303.5C 300.242,301.745 303.076,300.078 306,298.5C 306.49,299.793 306.657,301.127 306.5,302.5C 305.448,302.351 304.448,302.517 303.5,303C 302.404,307.295 304.071,310.128 308.5,311.5C 309.48,314.086 309.813,316.753 309.5,319.5 Z"/></g>
<g><path style="opacity:1" fill="#e4133e" d="M 361.5,292.5 C 362.756,292.096 363.923,291.429 365,290.5C 366.885,290.862 367.719,292.029 367.5,294C 364.096,297.795 362.43,302.295 362.5,307.5C 367.58,307.944 369.247,305.944 367.5,301.5C 367.5,300.833 367.5,300.167 367.5,299.5C 368.591,294.267 371.924,291.933 377.5,292.5C 378.48,296.318 380.147,299.818 382.5,303C 381.129,305.319 380.462,307.819 380.5,310.5C 378.801,310.34 377.134,310.506 375.5,311C 374.244,311.417 373.577,312.25 373.5,313.5C 372.5,313.5 371.5,313.5 370.5,313.5C 370.5,316.5 370.5,319.5 370.5,322.5C 375.649,322.349 377.982,319.682 377.5,314.5C 378.552,314.351 379.552,314.517 380.5,315C 381.287,318.004 380.621,320.837 378.5,323.5C 377.311,324.429 375.978,324.762 374.5,324.5C 374.5,325.5 374.5,326.5 374.5,327.5C 372.516,327.617 370.85,326.95 369.5,325.5C 367.424,321.77 366.257,317.77 366,313.5C 361.753,311.856 358.253,312.856 355.5,316.5C 353.843,320.13 351.843,323.464 349.5,326.5C 342.543,326.202 339.543,322.535 340.5,315.5C 340.703,312.803 341.036,310.136 341.5,307.5C 343.6,307.523 345.433,306.856 347,305.5C 349.176,308.287 352.009,309.121 355.5,308C 357.155,306.556 357.822,304.722 357.5,302.5C 357.5,302.167 357.5,301.833 357.5,301.5C 355.003,300.333 352.503,298.999 350,297.5C 348.252,299.1 347.085,301.1 346.5,303.5C 344.771,301.149 344.104,298.482 344.5,295.5C 344.765,292.289 346.432,290.289 349.5,289.5C 351.83,291.172 354.33,292.505 357,293.5C 358.592,293.395 360.092,293.061 361.5,292.5 Z M 346.5,313.5 C 348.199,313.34 349.866,313.506 351.5,314C 349.641,315.558 348.141,317.391 347,319.5C 345.668,317.45 345.502,315.45 346.5,313.5 Z M 375.5,304.5 C 375.5,305.167 375.167,305.5 374.5,305.5C 374.491,303.692 374.991,302.025 376,300.5C 376.579,301.928 376.412,303.262 375.5,304.5 Z M 367.5,299.5 C 367.5,300.167 367.5,300.833 367.5,301.5C 367.201,303.455 366.201,304.789 364.5,305.5C 364.992,303.181 365.992,301.181 367.5,299.5 Z"/></g>
<g><path style="opacity:0.29" fill="#e26c86" d="M 375.5,304.5 C 376.412,303.262 376.579,301.928 376,300.5C 374.991,302.025 374.491,303.692 374.5,305.5C 373.539,303.735 373.205,301.735 373.5,299.5C 374.833,299.5 376.167,299.5 377.5,299.5C 377.923,301.781 377.256,303.448 375.5,304.5 Z"/></g>
<g><path style="opacity:0.996" fill="#e40d3e" d="M 80.5,318.5 C 80.5,318.833 80.5,319.167 80.5,319.5C 80.1667,319.5 79.8333,319.5 79.5,319.5C 78.1153,320.302 78.282,320.969 80,321.5C 82.6156,320.385 85.1156,319.051 87.5,317.5C 87.8333,317.833 88.1667,318.167 88.5,318.5C 87.0499,319.85 86.3832,321.516 86.5,323.5C 83.6887,323.571 81.022,324.238 78.5,325.5C 77.4461,325.32 76.4461,324.987 75.5,324.5C 74.3166,320.825 74.3166,317.159 75.5,313.5C 76.8149,312.524 78.1482,311.524 79.5,310.5C 80.1873,313.34 80.5206,316.007 80.5,318.5 Z"/></g>
<g><path style="opacity:0.447" fill="#d9667b" d="M 165.5,298.5 C 164.68,300.812 163.847,303.146 163,305.5C 161.491,307.919 159.325,308.919 156.5,308.5C 156.5,313.5 156.5,318.5 156.5,323.5C 158.167,323.5 159.833,323.5 161.5,323.5C 161.132,319.956 162.132,316.956 164.5,314.5C 163.984,317.899 163.15,321.232 162,324.5C 158.319,326.399 155.819,325.399 154.5,321.5C 155.448,316.565 155.781,311.565 155.5,306.5C 156.822,306.33 157.989,306.663 159,307.5C 161.441,304.614 163.607,301.614 165.5,298.5 Z"/></g>
<g><path style="opacity:0.278" fill="#dc6b7e" d="M 73.5,314.5 C 72.7791,317.817 72.6124,321.151 73,324.5C 75.9036,326.227 79.0703,326.893 82.5,326.5C 78.6274,328.972 74.7941,328.639 71,325.5C 70.5169,321.468 71.3502,317.801 73.5,314.5 Z"/></g>
<g><path style="opacity:0.322" fill="#de677d" d="M 271.5,309.5 C 270.228,314.791 269.062,320.124 268,325.5C 266.938,326.097 265.772,326.43 264.5,326.5C 262.645,326.66 261.312,325.993 260.5,324.5C 262.833,324.5 265.167,324.5 267.5,324.5C 267.335,321.482 267.502,318.482 268,315.5C 268.424,312.975 269.59,310.975 271.5,309.5 Z"/></g>
<g><path style="opacity:0.557" fill="#db6276" d="M 302.5,314.5 C 303.404,315.209 303.737,316.209 303.5,317.5C 301.08,317.708 298.747,317.374 296.5,316.5C 295.056,322.423 297.389,324.923 303.5,324C 304.532,321.126 306.532,319.626 309.5,319.5C 305.379,327.159 300.213,328.159 294,322.5C 292.268,315.493 294.435,313.493 300.5,316.5C 301.522,316.145 302.189,315.478 302.5,314.5 Z"/></g>
<g><path style="opacity:0.647" fill="#df4f6b" d="M 401.5,313.5 C 400.488,314.872 399.488,316.205 398.5,317.5C 400.258,308.823 398.425,308.156 393,315.5C 391.809,327.513 395.976,329.68 405.5,322C 407.618,318.553 410.285,315.719 413.5,313.5C 415.421,312.359 417.421,312.192 419.5,313C 421.399,317.178 422.065,321.678 421.5,326.5C 422.5,326.5 423.5,326.5 424.5,326.5C 425.676,322.79 426.676,319.124 427.5,315.5C 428.014,317.366 428.68,319.2 429.5,321C 428.049,324.111 426.215,326.944 424,329.5C 422.527,329.097 421.194,328.43 420,327.5C 419.501,323.179 419.334,318.846 419.5,314.5C 418.127,314.343 416.793,314.51 415.5,315C 410.142,320.704 403.975,325.204 397,328.5C 387.279,326.025 385.779,321.025 392.5,313.5C 394.235,311.765 396.235,310.432 398.5,309.5C 400.915,309.719 401.915,311.052 401.5,313.5 Z M 405.5,313.5 C 403.887,315.643 401.72,317.976 399,320.5C 398.517,319.552 398.351,318.552 398.5,317.5C 399.488,316.205 400.488,314.872 401.5,313.5C 402.702,312.595 404.036,312.595 405.5,313.5 Z"/></g>
<g><path style="opacity:0.98" fill="#e05272" d="M 467.5,309.5 C 463.798,317.531 458.131,323.531 450.5,327.5C 447.421,327.2 444.921,325.867 443,323.5C 442.501,319.848 442.335,316.182 442.5,312.5C 443.319,315.305 443.819,318.305 444,321.5C 447.541,325.04 451.374,325.374 455.5,322.5C 459.607,318.068 463.607,313.734 467.5,309.5 Z"/></g>
<g><path style="opacity:0.412" fill="#dc5672" d="M 544.5,316.5 C 545.167,316.167 545.833,315.833 546.5,315.5C 545.955,318.813 545.455,322.146 545,325.5C 542.936,326.591 540.769,326.758 538.5,326C 537.132,317.443 535.298,308.943 533,300.5C 532.148,301.571 531.315,302.571 530.5,303.5C 530.5,301.833 530.5,300.167 530.5,298.5C 532.39,298.297 533.89,298.963 535,300.5C 537.916,308.224 539.083,316.224 538.5,324.5C 543.82,324.574 545.82,321.907 544.5,316.5 Z"/></g>
<g><path style="opacity:0.995" fill="#e3435f" d="M 344.5,295.5 C 344.104,298.482 344.771,301.149 346.5,303.5C 347.085,301.1 348.252,299.1 350,297.5C 352.503,298.999 355.003,300.333 357.5,301.5C 354.794,301.425 352.127,301.092 349.5,300.5C 349.5,302.167 349.5,303.833 349.5,305.5C 352.986,306.171 355.653,305.171 357.5,302.5C 357.822,304.722 357.155,306.556 355.5,308C 352.009,309.121 349.176,308.287 347,305.5C 345.433,306.856 343.6,307.523 341.5,307.5C 341.036,310.136 340.703,312.803 340.5,315.5C 339.543,322.535 342.543,326.202 349.5,326.5C 349.5,327.167 349.5,327.833 349.5,328.5C 346.117,331.334 343.284,330.667 341,326.5C 337.003,319.788 336.836,313.121 340.5,306.5C 341.729,305.719 343.062,305.219 344.5,305C 340.803,301.891 340.803,298.724 344.5,295.5 Z"/></g>
<g><path style="opacity:0.459" fill="#de506a" d="M 110.5,308.5 C 114.908,308.062 116.575,310.062 115.5,314.5C 113.54,315.138 111.707,315.138 110,314.5C 109.374,316.713 109.541,318.88 110.5,321C 109.51,324.504 107.677,327.338 105,329.5C 104.127,329.265 103.293,328.931 102.5,328.5C 101.507,323.88 101.173,319.214 101.5,314.5C 102.483,318.298 102.817,322.298 102.5,326.5C 105.658,326.086 107.658,324.253 108.5,321C 107.784,318.208 107.451,315.374 107.5,312.5C 109.527,312.662 111.527,312.495 113.5,312C 111.937,311.241 110.937,310.074 110.5,308.5 Z"/></g>
<g><path style="opacity:0.353" fill="#dd5f78" d="M 476.5,313.5 C 472.068,318.981 472.735,323.814 478.5,328C 485.675,328.001 492.675,326.834 499.5,324.5C 493.278,329.07 486.278,330.903 478.5,330C 476.957,328.122 475.124,326.622 473,325.5C 471.121,322.134 471.121,318.8 473,315.5C 473.816,314.177 474.983,313.511 476.5,313.5 Z"/></g>
<g><path style="opacity:0.149" fill="#d86377" d="M 34.5,362.5 C 36.9758,359.722 37.9758,356.389 37.5,352.5C 34.5,352.5 31.5,352.5 28.5,352.5C 28.5,354.167 28.5,355.833 28.5,357.5C 27.5386,355.735 27.2053,353.735 27.5,351.5C 29.5914,351.682 31.5914,351.348 33.5,350.5C 35.3817,351.093 37.2151,351.76 39,352.5C 38.712,355.791 38.212,359.125 37.5,362.5C 36.5,362.5 35.5,362.5 34.5,362.5 Z"/></g>
<g><path style="opacity:0.566" fill="#e01442" d="M 34.5,362.5 C 33.0108,364.116 32.0108,366.116 31.5,368.5C 30.5981,364.681 29.5981,361.014 28.5,357.5C 28.5,355.833 28.5,354.167 28.5,352.5C 31.5,352.5 34.5,352.5 37.5,352.5C 37.9758,356.389 36.9758,359.722 34.5,362.5 Z"/></g>
<g><path style="opacity:0.1" fill="#c77384" d="M 390.5,353.5 C 389.5,353.5 388.5,353.5 387.5,353.5C 387.799,355.604 387.466,357.604 386.5,359.5C 385.893,359.376 385.56,359.043 385.5,358.5C 386.833,357.5 386.833,356.5 385.5,355.5C 385.5,354.167 385.5,352.833 385.5,351.5C 384.041,351.433 382.708,351.766 381.5,352.5C 381.791,351.351 382.624,350.684 384,350.5C 386.324,351.416 388.491,352.416 390.5,353.5 Z"/></g>
<g><path style="opacity:0.173" fill="#d58087" d="M 63.5,355.5 C 62.2921,356.234 60.9587,356.567 59.5,356.5C 59.7373,357.791 59.404,358.791 58.5,359.5C 58.5,358.167 58.5,356.833 58.5,355.5C 60.398,354.904 62.0646,354.904 63.5,355.5 Z"/></g>
<g><path style="opacity:0.91" fill="#d54760" d="M 430.5,361.5 C 432.042,362.141 433.376,363.141 434.5,364.5C 432.767,367.059 431.267,369.725 430,372.5C 429.535,371.069 428.701,369.903 427.5,369C 424.898,368.023 422.398,366.856 420,365.5C 419.37,363.097 420.203,361.263 422.5,360C 420.16,356.915 420.493,353.915 423.5,351C 426.719,351.348 429.886,351.514 433,351.5C 433.609,355.256 432.775,358.59 430.5,361.5 Z"/></g>
<g><path style="opacity:0.408" fill="#dd1a47" d="M 116.5,367.5 C 116.5,367.833 116.5,368.167 116.5,368.5C 114.08,368.708 111.747,368.374 109.5,367.5C 108.571,366.311 108.238,364.978 108.5,363.5C 110.912,363.244 112.579,364.244 113.5,366.5C 114.443,364.53 113.776,363.03 111.5,362C 112.823,361.184 113.489,360.017 113.5,358.5C 114.141,356.958 115.141,355.624 116.5,354.5C 117.54,358.818 117.54,363.151 116.5,367.5 Z"/></g>
<g><path style="opacity:0.843" fill="#d25b6d" d="M 136.5,364.5 C 137.077,360.92 136.077,357.92 133.5,355.5C 128.958,354.106 126.291,355.773 125.5,360.5C 125.71,363.245 126.71,365.578 128.5,367.5C 123.286,365.34 122.119,361.674 125,356.5C 128.084,352.243 131.751,351.576 136,354.5C 137.404,356.639 138.237,358.972 138.5,361.5C 138.36,363.03 137.693,364.03 136.5,364.5 Z"/></g>
<g><path style="opacity:0.918" fill="#db2248" d="M 332.5,352.5 C 334.167,352.5 335.833,352.5 337.5,352.5C 337.307,355.308 336.64,357.975 335.5,360.5C 334.209,360.263 333.209,360.596 332.5,361.5C 331.833,361.167 331.167,360.833 330.5,360.5C 327.947,358.295 327.947,355.962 330.5,353.5C 330.842,352.662 331.508,352.328 332.5,352.5 Z"/></g>
<g><path style="opacity:0.612" fill="#d75068" d="M 446.5,366.5 C 446.5,363.5 446.5,360.5 446.5,357.5C 444.278,357.822 442.444,357.155 441,355.5C 440.322,359.221 440.489,362.888 441.5,366.5C 439.351,363.815 438.017,360.648 437.5,357C 438.691,353.691 440.857,352.857 444,354.5C 445.423,351.408 447.757,349.408 451,348.5C 451.667,350.167 451.667,351.833 451,353.5C 448.461,357.614 446.961,361.947 446.5,366.5 Z"/></g>
<g><path style="opacity:0.902" fill="#db1843" d="M 525.5,365.5 C 525.5,365.167 525.5,364.833 525.5,364.5C 524.043,361.348 523.043,358.015 522.5,354.5C 525.983,354.309 529.316,353.643 532.5,352.5C 532.5,353.833 532.5,355.167 532.5,356.5C 531.5,356.5 530.5,356.5 529.5,356.5C 529.824,360.555 529.491,364.555 528.5,368.5C 527.712,367.23 526.712,366.23 525.5,365.5 Z"/></g>
<g><path style="opacity:0.302" fill="#d2566f" d="M 153.5,367.5 C 153.449,362.622 152.615,357.955 151,353.5C 150.823,357.356 150.323,361.023 149.5,364.5C 149.663,362.143 149.497,359.81 149,357.5C 148.503,360.146 148.336,362.813 148.5,365.5C 147.523,362.713 147.19,359.713 147.5,356.5C 146.5,356.5 145.5,356.5 144.5,356.5C 143.994,360.604 143.994,364.604 144.5,368.5C 143.206,366.952 142.539,364.952 142.5,362.5C 142.667,360.5 142.833,358.5 143,356.5C 144.312,354.342 145.978,354.009 148,355.5C 148.49,354.207 148.657,352.873 148.5,351.5C 150.144,351.286 151.644,351.62 153,352.5C 154.61,357.61 154.777,362.61 153.5,367.5 Z"/></g>
<g><path style="opacity:0.463" fill="#d0586e" d="M 219.5,357.5 C 219.5,355.833 219.5,354.167 219.5,352.5C 216.552,352.223 213.719,352.556 211,353.5C 210.934,357.251 210.101,360.751 208.5,364C 208.743,364.902 209.077,365.735 209.5,366.5C 205.499,364.575 205.499,362.409 209.5,360C 207.987,357.084 208.32,354.418 210.5,352C 213.561,351.465 216.561,351.132 219.5,351C 220.811,353.274 220.811,355.44 219.5,357.5 Z"/></g>
<g><path style="opacity:0.857" fill="#d93957" d="M 163.5,350.5 C 166.106,352.53 168.939,354.197 172,355.5C 172.839,358.14 172.339,360.473 170.5,362.5C 171.528,364.361 173.028,365.695 175,366.5C 175.72,368.112 175.554,369.612 174.5,371C 173.833,371.667 173.167,371.667 172.5,371C 169.839,366.66 167.006,366.16 164,369.5C 162.579,366.991 160.912,364.657 159,362.5C 159.405,360.621 160.238,358.787 161.5,357C 159.753,354.011 160.419,351.845 163.5,350.5 Z"/></g>
<g><path style="opacity:0.235" fill="#d86879" d="M 233.5,353.5 C 232.167,353.5 230.833,353.5 229.5,353.5C 229.896,356.482 229.229,359.149 227.5,361.5C 229.086,363.173 229.753,365.173 229.5,367.5C 228.442,365.251 227.109,363.085 225.5,361C 228.43,359.115 229.096,356.615 227.5,353.5C 229.442,351.025 231.442,351.025 233.5,353.5 Z"/></g>
<g><path style="opacity:0.576" fill="#d72245" d="M 446.5,366.5 C 446.5,367.5 446.5,368.5 446.5,369.5C 444.011,369.759 442.344,368.759 441.5,366.5C 440.489,362.888 440.322,359.221 441,355.5C 442.444,357.155 444.278,357.822 446.5,357.5C 446.5,360.5 446.5,363.5 446.5,366.5 Z"/></g>
<g><path style="opacity:0.859" fill="#d8435d" d="M 116.5,367.5 C 117.54,363.151 117.54,358.818 116.5,354.5C 115.141,355.624 114.141,356.958 113.5,358.5C 113.489,360.017 112.823,361.184 111.5,362C 113.776,363.03 114.443,364.53 113.5,366.5C 112.579,364.244 110.912,363.244 108.5,363.5C 108.238,364.978 108.571,366.311 109.5,367.5C 111.747,368.374 114.08,368.708 116.5,368.5C 115.188,369.812 113.854,371.146 112.5,372.5C 109.443,370.635 107.443,367.968 106.5,364.5C 106.919,363.328 107.585,362.328 108.5,361.5C 106.738,356.693 107.738,352.693 111.5,349.5C 113.291,351.46 115.457,352.793 118,353.5C 118.446,356.343 118.946,359.176 119.5,362C 119.387,364.399 118.387,366.232 116.5,367.5 Z"/></g>
<g><path style="opacity:0.737" fill="#d73a58" d="M 191.5,350.5 C 194.871,351.323 198.204,352.489 201.5,354C 202.591,356.064 202.758,358.231 202,360.5C 200.172,362.081 198.172,363.415 196,364.5C 195.887,366.974 194.887,368.974 193,370.5C 188.888,364.229 188.388,357.562 191.5,350.5 Z M 195.5,357.5 C 197.975,357.747 197.975,358.413 195.5,359.5C 194.537,359.03 194.537,358.363 195.5,357.5 Z"/></g>
<g><path style="opacity:0.227" fill="#d05567" d="M 345.5,353.5 C 344.689,357.55 346.189,360.216 350,361.5C 350.29,363.952 350.956,366.285 352,368.5C 352.175,364.789 352.675,361.122 353.5,357.5C 355.773,356.625 356.773,354.958 356.5,352.5C 353.833,352.833 351.167,353.167 348.5,353.5C 350.949,352.209 353.616,351.209 356.5,350.5C 358.954,352.876 359.121,355.543 357,358.5C 355.697,359.112 354.53,359.446 353.5,359.5C 354.575,362.438 354.741,365.438 354,368.5C 353.047,370.592 351.714,370.925 350,369.5C 349.08,366.899 348.413,364.232 348,361.5C 347.333,362.833 346.667,362.833 346,361.5C 345.163,359.649 344.329,357.816 343.5,356C 344.066,355.005 344.733,354.172 345.5,353.5 Z"/></g>
<g><path style="opacity:0.816" fill="#dc123f" d="M 345.5,353.5 C 346.5,353.5 347.5,353.5 348.5,353.5C 351.167,353.167 353.833,352.833 356.5,352.5C 356.773,354.958 355.773,356.625 353.5,357.5C 352.675,361.122 352.175,364.789 352,368.5C 350.956,366.285 350.29,363.952 350,361.5C 346.189,360.216 344.689,357.55 345.5,353.5 Z"/></g>
<g><path style="opacity:0.859" fill="#d92546" d="M 371.5,360.5 C 372.379,362.228 373.046,364.061 373.5,366C 373.167,366.833 372.833,367.667 372.5,368.5C 370.118,366.929 367.451,366.096 364.5,366C 364.833,365.667 365.167,365.333 365.5,365C 361.551,364.193 361.551,363.693 365.5,363.5C 365.5,362.5 365.5,361.5 365.5,360.5C 365.756,358.208 365.423,356.041 364.5,354C 366.052,350.849 367.885,350.682 370,353.5C 370.662,355.813 371.162,358.146 371.5,360.5 Z"/></g>
<g><path style="opacity:0.714" fill="#d93252" d="M 385.5,355.5 C 385.5,356.5 385.5,357.5 385.5,358.5C 385.56,359.043 385.893,359.376 386.5,359.5C 387.466,357.604 387.799,355.604 387.5,353.5C 388.5,353.5 389.5,353.5 390.5,353.5C 393.984,361.067 392.317,367.4 385.5,372.5C 382.443,370.635 380.443,367.968 379.5,364.5C 379.529,362.971 380.196,361.804 381.5,361C 380.321,358.204 380.321,355.371 381.5,352.5C 382.708,351.766 384.041,351.433 385.5,351.5C 385.5,352.833 385.5,354.167 385.5,355.5 Z"/></g>
<g><path style="opacity:0.267" fill="#ce4c66" d="M 547.5,365.5 C 546.102,364.223 545.436,362.557 545.5,360.5C 545.84,358.488 546.173,356.488 546.5,354.5C 545.5,354.5 544.5,354.5 543.5,354.5C 544.055,358.012 543.388,361.012 541.5,363.5C 541.519,361.94 541.852,360.44 542.5,359C 540.987,357.121 540.321,354.954 540.5,352.5C 544.302,351.88 547.635,352.714 550.5,355C 546.354,357.603 545.354,361.103 547.5,365.5 Z"/></g>
<g><path style="opacity:0.875" fill="#d23a55" d="M 44.5,352.5 C 47.4475,352.223 50.2809,352.556 53,353.5C 52.6393,355.933 52.1393,358.433 51.5,361C 52.4966,363.833 53.4966,366.666 54.5,369.5C 50.8213,368.493 47.4879,368.493 44.5,369.5C 43.0183,367.29 43.5183,365.624 46,364.5C 46.1667,363.167 46.3333,361.833 46.5,360.5C 45.8086,357.802 45.1419,355.135 44.5,352.5 Z"/></g>
<g><path style="opacity:0.566" fill="#de1444" d="M 63.5,355.5 C 63.5,357.5 63.5,359.5 63.5,361.5C 66.3882,361.78 67.8882,360.447 68,357.5C 68.3924,360.188 68.8924,362.855 69.5,365.5C 69.1667,366.167 68.8333,366.833 68.5,367.5C 67.3869,365.969 65.8869,364.969 64,364.5C 62.6739,364.755 61.6739,365.422 61,366.5C 60.8091,364.292 60.3091,362.292 59.5,360.5C 58.8333,360.5 58.5,360.167 58.5,359.5C 59.404,358.791 59.7373,357.791 59.5,356.5C 60.9587,356.567 62.2921,356.234 63.5,355.5 Z"/></g>
<g><path style="opacity:0.498" fill="#d82448" d="M 219.5,357.5 C 219.322,358.695 218.989,359.862 218.5,361C 219.783,362.136 220.783,363.469 221.5,365C 219.629,367.235 218.129,369.735 217,372.5C 215.37,369.432 212.87,367.432 209.5,366.5C 209.077,365.735 208.743,364.902 208.5,364C 210.101,360.751 210.934,357.251 211,353.5C 213.719,352.556 216.552,352.223 219.5,352.5C 219.5,354.167 219.5,355.833 219.5,357.5 Z"/></g>
<g><path style="opacity:0.11" fill="#df1f47" d="M 136.5,364.5 C 136.586,365.496 136.252,366.329 135.5,367C 133.579,367.36 131.912,368.194 130.5,369.5C 129.478,369.145 128.811,368.478 128.5,367.5C 126.71,365.578 125.71,363.245 125.5,360.5C 126.291,355.773 128.958,354.106 133.5,355.5C 136.077,357.92 137.077,360.92 136.5,364.5 Z"/></g>
<g><path style="opacity:0.745" fill="#de1c45" d="M 579.5,361.5 C 579.85,359.374 579.85,357.041 579.5,354.5C 582.846,352.676 586.513,352.01 590.5,352.5C 589.813,357.594 587.98,362.26 585,366.5C 583.829,365.107 582.329,364.273 580.5,364C 579.748,363.329 579.414,362.496 579.5,361.5 Z"/></g>
<g><path style="opacity:0.161" fill="#cc4b61" d="M 28.5,357.5 C 29.5981,361.014 30.5981,364.681 31.5,368.5C 32.0108,366.116 33.0108,364.116 34.5,362.5C 34.3215,365.216 33.8215,367.883 33,370.5C 31.4126,371.727 30.0793,371.394 29,369.5C 28.0059,365.44 27.8392,361.44 28.5,357.5 Z"/></g>
<g><path style="opacity:0.867" fill="#d33954" d="M 286.5,361.5 C 288.806,359.986 290.139,360.652 290.5,363.5C 288.406,369.924 284.906,370.924 280,366.5C 277.853,362.02 278.02,357.687 280.5,353.5C 283.869,351.35 286.869,351.516 289.5,354C 288.358,356.45 287.358,358.95 286.5,361.5 Z M 286.5,361.5 C 286.013,362.473 285.513,363.473 285,364.5C 282.661,360.166 283.161,359.166 286.5,361.5 Z"/></g>
<g><path style="opacity:0.937" fill="#d15467" d="M 297.5,353.5 C 297.338,355.527 297.505,357.527 298,359.5C 299.972,360.305 301.472,361.639 302.5,363.5C 303.308,361.577 303.808,359.577 304,357.5C 305.011,356.663 306.178,356.33 307.5,356.5C 307.5,355.167 307.5,353.833 307.5,352.5C 304.833,352.833 302.167,353.167 299.5,353.5C 302.263,351.892 305.263,351.059 308.5,351C 309.591,353.064 309.758,355.231 309,357.5C 308.29,358.973 307.124,359.64 305.5,359.5C 305.665,362.85 305.498,366.183 305,369.5C 304.282,370.451 303.449,370.617 302.5,370C 301.081,365.742 298.914,361.909 296,358.5C 295.833,357.667 295.667,356.833 295.5,356C 295.684,354.624 296.351,353.791 297.5,353.5 Z"/></g>
<g><path style="opacity:0.884" fill="#e1123e" d="M 297.5,353.5 C 298.167,353.5 298.833,353.5 299.5,353.5C 302.167,353.167 304.833,352.833 307.5,352.5C 307.5,353.833 307.5,355.167 307.5,356.5C 306.178,356.33 305.011,356.663 304,357.5C 303.808,359.577 303.308,361.577 302.5,363.5C 301.472,361.639 299.972,360.305 298,359.5C 297.505,357.527 297.338,355.527 297.5,353.5 Z"/></g>
<g><path style="opacity:0.941" fill="#dd1d46" d="M 430.5,361.5 C 427.916,362.048 426.916,363.715 427.5,366.5C 424.891,366.17 423.224,364.67 422.5,362C 423.167,360 423.833,358 424.5,356C 423.359,355.259 423.359,354.425 424.5,353.5C 426.743,352.526 429.076,352.192 431.5,352.5C 431.296,355.518 430.963,358.518 430.5,361.5 Z"/></g>
<g><path style="opacity:0.553" fill="#d1445d" d="M 476.5,350.5 C 479.558,352.388 482.725,354.054 486,355.5C 486.839,358.14 486.339,360.473 484.5,362.5C 485.865,363.941 487.365,365.274 489,366.5C 489.72,368.112 489.554,369.612 488.5,371C 487.833,371.667 487.167,371.667 486.5,371C 484.144,367.183 481.311,366.35 478,368.5C 476.342,366.532 474.675,364.532 473,362.5C 473.405,360.621 474.238,358.787 475.5,357C 475.355,355.774 475.022,354.607 474.5,353.5C 475.193,352.482 475.859,351.482 476.5,350.5 Z"/></g>
<g><path style="opacity:0.792" fill="#de1743" d="M 477.5,353.5 C 479.482,353.995 481.482,354.495 483.5,355C 484.059,355.725 484.392,356.558 484.5,357.5C 483.388,359.39 482.554,361.39 482,363.5C 479.441,365.853 477.274,365.687 475.5,363C 476.207,359.839 476.874,356.672 477.5,353.5 Z"/></g>
<g><path style="opacity:0.886" fill="#d72f4f" d="M 233.5,353.5 C 239.388,354.282 240.721,357.282 237.5,362.5C 238.528,364.361 240.028,365.695 242,366.5C 242.884,368.641 242.384,370.307 240.5,371.5C 238.445,369.445 236.112,367.779 233.5,366.5C 232.5,367.167 231.5,367.833 230.5,368.5C 229.893,368.376 229.56,368.043 229.5,367.5C 229.753,365.173 229.086,363.173 227.5,361.5C 229.229,359.149 229.896,356.482 229.5,353.5C 230.833,353.5 232.167,353.5 233.5,353.5 Z"/></g>
<g><path style="opacity:0.776" fill="#d93954" d="M 464.5,350.5 C 466.89,350.685 467.89,352.018 467.5,354.5C 467.195,357.276 466.195,359.776 464.5,362C 466.573,362.118 467.907,363.118 468.5,365C 467.132,367.567 465.632,370.067 464,372.5C 462.332,368.835 459.499,366.668 455.5,366C 454.065,363.733 454.398,361.733 456.5,360C 455.409,357.936 455.242,355.769 456,353.5C 458.714,352.004 461.547,351.004 464.5,350.5 Z"/></g>
<g><path style="opacity:0.624" fill="#d4596d" d="M 500.5,368.5 C 498.573,372.243 496.239,372.41 493.5,369C 490.249,366.563 489.916,363.896 492.5,361C 490.395,351.137 493.728,348.47 502.5,353C 504.304,356.296 504.804,359.796 504,363.5C 503.777,365.881 502.61,367.547 500.5,368.5 Z"/></g>
<g><path style="opacity:0.365" fill="#db274e" d="M 500.5,368.5 C 498.473,368.662 496.473,368.495 494.5,368C 493.978,367.439 493.645,366.772 493.5,366C 494.387,362.18 494.554,358.346 494,354.5C 495.011,353.663 496.178,353.33 497.5,353.5C 497.833,361.5 498.167,361.5 498.5,353.5C 499.822,353.33 500.989,353.663 502,354.5C 502.167,356.167 502.333,357.833 502.5,359.5C 501.954,362.566 501.288,365.566 500.5,368.5 Z"/></g>
<g><path style="opacity:0.149" fill="#cc5c6d" d="M 525.5,365.5 C 526.712,366.23 527.712,367.23 528.5,368.5C 529.491,364.555 529.824,360.555 529.5,356.5C 530.5,356.5 531.5,356.5 532.5,356.5C 532.5,355.167 532.5,353.833 532.5,352.5C 529.316,353.643 525.983,354.309 522.5,354.5C 523.043,358.015 524.043,361.348 525.5,364.5C 522.147,361.796 520.48,358.462 520.5,354.5C 524.318,353.061 528.151,351.728 532,350.5C 534.33,352.664 534.997,355.331 534,358.5C 533,359.833 532,359.833 531,358.5C 530.833,359 530.667,359.5 530.5,360C 531.517,362.787 531.684,365.62 531,368.5C 527.649,371.041 525.815,370.041 525.5,365.5 Z"/></g>
<g><path style="opacity:0.678" fill="#d4284c" d="M 153.5,367.5 C 150.775,370.708 147.775,371.041 144.5,368.5C 143.994,364.604 143.994,360.604 144.5,356.5C 145.5,356.5 146.5,356.5 147.5,356.5C 147.19,359.713 147.523,362.713 148.5,365.5C 149.167,365.5 149.5,365.167 149.5,364.5C 150.323,361.023 150.823,357.356 151,353.5C 152.615,357.955 153.449,362.622 153.5,367.5 Z"/></g>
<g><path style="opacity:0.584" fill="#d6445a" d="M 579.5,361.5 C 579.414,362.496 579.748,363.329 580.5,364C 582.329,364.273 583.829,365.107 585,366.5C 587.98,362.26 589.813,357.594 590.5,352.5C 586.513,352.01 582.846,352.676 579.5,354.5C 579.414,353.504 579.748,352.671 580.5,352C 591.757,348.251 594.757,351.584 589.5,362C 590.448,362.483 591.448,362.649 592.5,362.5C 592.285,366.266 590.951,369.6 588.5,372.5C 587.148,371.482 586.148,370.149 585.5,368.5C 583.189,367.786 581.022,366.786 579,365.5C 578.235,363.934 578.402,362.601 579.5,361.5 Z"/></g>
<g><path style="opacity:0.898" fill="#d73655" d="M 80.5,350.5 C 85.9077,353.25 89.5743,357.583 91.5,363.5C 87.2665,371.487 82.2665,372.154 76.5,365.5C 77.9139,360.508 79.2472,355.508 80.5,350.5 Z M 82.5,361.5 C 84.0229,360.254 85.0229,360.754 85.5,363C 85.3865,364.28 84.7199,365.113 83.5,365.5C 83.5236,364.214 83.1903,362.88 82.5,361.5 Z"/></g>
<g><path style="opacity:0.894" fill="#d4445c" d="M 330.5,353.5 C 327.947,355.962 327.947,358.295 330.5,360.5C 330.771,362.312 331.438,363.978 332.5,365.5C 335.14,364.127 335.14,362.794 332.5,361.5C 333.209,360.596 334.209,360.263 335.5,360.5C 336.64,357.975 337.307,355.308 337.5,352.5C 335.833,352.5 334.167,352.5 332.5,352.5C 335.286,349.685 337.619,350.185 339.5,354C 338.833,355.667 338.167,357.333 337.5,359C 340.797,363.713 339.797,367.213 334.5,369.5C 330.143,371.018 327.143,369.518 325.5,365C 326.185,362.205 326.685,359.372 327,356.5C 327.422,354.574 328.589,353.574 330.5,353.5 Z M 330.5,360.5 C 331.167,360.833 331.833,361.167 332.5,361.5C 335.14,362.794 335.14,364.127 332.5,365.5C 331.438,363.978 330.771,362.312 330.5,360.5 Z"/></g>
<g><path style="opacity:0.78" fill="#d34b5e" d="M 365.5,360.5 C 365.5,361.5 365.5,362.5 365.5,363.5C 361.551,363.693 361.551,364.193 365.5,365C 365.167,365.333 364.833,365.667 364.5,366C 367.451,366.096 370.118,366.929 372.5,368.5C 372.833,367.667 373.167,366.833 373.5,366C 373.046,364.061 372.379,362.228 371.5,360.5C 374.042,362.248 375.376,364.748 375.5,368C 375.612,369.662 374.946,370.829 373.5,371.5C 371.833,370.167 370.167,368.833 368.5,367.5C 365.458,370.043 362.625,369.71 360,366.5C 359.51,365.207 359.343,363.873 359.5,362.5C 361.886,362.741 363.886,362.075 365.5,360.5 Z"/></g>
<g><path style="opacity:0.749" fill="#cd4c67" d="M 398.5,365.5 C 403.678,366.191 404.678,368.691 401.5,373C 400.207,373.49 398.873,373.657 397.5,373.5C 397.401,370.763 397.735,368.096 398.5,365.5 Z"/></g>
<g><path style="opacity:0.898" fill="#cf4c64" d="M 541.5,364.5 C 542.012,365.923 543.346,366.923 545.5,367.5C 547.03,367.36 548.03,366.693 548.5,365.5C 550.973,365.604 551.639,366.604 550.5,368.5C 548.865,369.681 547.198,369.681 545.5,368.5C 542.618,371.523 540.618,371.023 539.5,367C 540.056,365.989 540.722,365.156 541.5,364.5 Z"/></g>
<g><path style="opacity:0.957" fill="#d91a45" d="M 547.5,365.5 C 547.833,365.5 548.167,365.5 548.5,365.5C 548.03,366.693 547.03,367.36 545.5,367.5C 543.346,366.923 542.012,365.923 541.5,364.5C 541.5,364.167 541.5,363.833 541.5,363.5C 543.388,361.012 544.055,358.012 543.5,354.5C 544.5,354.5 545.5,354.5 546.5,354.5C 546.173,356.488 545.84,358.488 545.5,360.5C 545.436,362.557 546.102,364.223 547.5,365.5 Z"/></g>
<g><path style="opacity:0.463" fill="#cd455e" d="M 59.5,360.5 C 60.3091,362.292 60.8091,364.292 61,366.5C 61.6739,365.422 62.6739,364.755 64,364.5C 65.8869,364.969 67.3869,365.969 68.5,367.5C 68.8333,366.833 69.1667,366.167 69.5,365.5C 68.8924,362.855 68.3924,360.188 68,357.5C 67.8882,360.447 66.3882,361.78 63.5,361.5C 63.5,359.5 63.5,357.5 63.5,355.5C 64.2323,356.808 65.0656,358.142 66,359.5C 66.6667,356.833 67.3333,354.167 68,351.5C 69.3333,350.167 70.6667,350.167 72,351.5C 70.7261,357.466 70.2261,363.466 70.5,369.5C 70.1667,369.833 69.8333,370.167 69.5,370.5C 67.8333,369.167 66.1667,367.833 64.5,366.5C 61.2247,369.372 59.2247,368.538 58.5,364C 58.9891,362.862 59.3225,361.695 59.5,360.5 Z"/></g>
<g><path style="opacity:0.682" fill="#d24d63" d="M 253.5,361.5 C 252.106,363.951 251.272,366.618 251,369.5C 246.534,371.013 245.034,369.513 246.5,365C 246.097,363.527 245.43,362.194 244.5,361C 244.833,358 245.167,355 245.5,352C 249.091,351.211 252.591,351.378 256,352.5C 256.073,355.158 255.74,357.824 255,360.5C 254.617,361.056 254.117,361.389 253.5,361.5 Z"/></g>
<g><path style="opacity:0.455" fill="#de1442" d="M 253.5,361.5 C 252.5,361.5 251.5,361.5 250.5,361.5C 250.769,363.429 250.269,365.095 249,366.5C 247.714,361.904 246.881,357.237 246.5,352.5C 249.167,352.5 251.833,352.5 254.5,352.5C 254.037,355.482 253.704,358.482 253.5,361.5 Z"/></g>
<g><path style="opacity:0.808" fill="#d05264" d="M 271.5,359.5 C 271.477,361.6 272.144,363.433 273.5,365C 272.519,367.62 271.353,370.12 270,372.5C 267.635,369.131 264.468,366.964 260.5,366C 259.105,363.925 259.438,362.092 261.5,360.5C 259.938,357.386 260.271,354.553 262.5,352C 271.424,348.104 274.424,350.604 271.5,359.5 Z"/></g>
<g><path style="opacity:0.506" fill="#dc1742" d="M 271.5,359.5 C 270.351,359.791 269.684,360.624 269.5,362C 269.943,363.825 270.277,365.658 270.5,367.5C 267.579,367.854 265.246,366.854 263.5,364.5C 263.643,361.738 263.31,358.904 262.5,356C 262.585,354.893 262.919,353.893 263.5,353C 270.397,349.723 273.064,351.89 271.5,359.5 Z"/></g>
<g><path style="opacity:0.247" fill="#d74862" d="M 561.5,350.5 C 562.822,350.33 563.989,350.663 565,351.5C 565.333,353.167 565.667,354.833 566,356.5C 567.444,354.845 569.278,354.178 571.5,354.5C 571.22,358.769 571.887,363.102 573.5,367.5C 572.603,371.104 570.937,371.437 568.5,368.5C 567.167,371.167 565.833,371.167 564.5,368.5C 563.18,370.27 561.68,370.603 560,369.5C 558.258,366.6 556.758,363.6 555.5,360.5C 555.719,358.085 557.052,357.085 559.5,357.5C 559.166,354.812 559.832,352.479 561.5,350.5 Z"/></g>
<g><path style="opacity:1" fill="#e2083d" d="M 560.5,355.5 C 562.903,355.393 564.736,356.393 566,358.5C 567.11,356.963 568.61,356.297 570.5,356.5C 570.5,359.833 570.5,363.167 570.5,366.5C 567.15,366.665 563.817,366.498 560.5,366C 558.781,364.13 557.781,361.963 557.5,359.5C 558.5,359.5 559.5,359.5 560.5,359.5C 560.5,358.167 560.5,356.833 560.5,355.5 Z"/></g>
</svg>
